<svg width="512" height="200" xmlns="http://www.w3.org/2000/svg" xmlns:svg="http://www.w3.org/2000/svg">
 <!-- Created with SVG-edit - https://github.com/SVG-Edit/svgedit-->
 <title>sinhtai</title>
 <g class="layer">
  <title>Layer 1</title>
  <path d="m33.90836,127.50044c9.65625,0 17.17122,-1.97353 22.54489,-5.91922c5.37368,-3.95525 8.06051,-9.19663 8.06051,-15.7255c0,-4.69173 -1.16885,-8.82838 -3.50516,-12.41129c-2.34587,-3.58291 -5.26456,-6.54662 -8.7561,-8.89248c-3.50107,-2.34587 -7.06488,-4.66446 -10.6928,-6.95578c-3.62791,-2.30086 -7.00624,-5.19637 -10.1336,-8.6879c-3.12737,-3.50107 -5.19637,-7.45632 -6.20564,-11.86573c-8.36466,-2.48225 -13.88018,-7.67454 -16.54383,-15.57548c-1.00927,-3.03736 -1.51391,-6.20973 -1.51391,-9.51986c0,-3.31013 0.50464,-6.75529 1.51391,-10.3382c2.10991,-7.08261 5.55507,-12.41538 10.3382,-15.99829l1.51391,2.20948c-4.3194,3.12737 -7.44268,8.00187 -9.36984,14.62077c-0.91789,3.30058 -1.37752,6.46887 -1.37752,9.50622c0,3.03736 0.45963,5.93287 1.37752,8.6879c2.19993,6.71027 6.7512,11.21516 13.65241,13.51602c-0.18139,-1.00927 -0.27277,-2.57364 -0.27277,-4.69173c0,-12.03895 4.36441,-21.78113 13.09322,-29.2279c8.72881,-7.44677 19.39024,-11.17016 31.98292,-11.17016c8.27464,0 14.89354,2.2504 19.85806,6.7512c4.22802,3.95525 6.34203,8.80656 6.34203,14.55258c0,5.74602 -1.92716,10.71053 -5.78284,14.89354c-3.86386,4.18302 -9.06023,6.27383 -15.58912,6.27383c-3.58291,0 -6.52343,-0.69148 -8.82429,-2.07309c-4.6822,3.58291 -10.24272,6.15518 -16.68022,7.71954c1.83714,1.74577 6.13335,4.96452 12.88864,9.65625c6.75529,4.69173 11.81118,9.17481 15.16632,13.44783c3.35514,4.27302 5.03271,9.26073 5.03271,14.96174c0,10.47458 -4.06435,18.97563 -12.19307,25.50451c-8.13825,6.52888 -18.43554,9.79264 -30.89182,9.79264c-12.45629,0 -21.85341,-2.75912 -28.19134,-8.27873c-5.51961,-4.6822 -8.27873,-10.40639 -8.27873,-17.17122c0,-6.75529 2.18221,-12.54358 6.54662,-17.36217c4.36441,-4.82813 9.81037,-7.24219 16.33925,-7.24219c6.52888,0 11.357,1.44571 14.48438,4.33713c3.11918,2.90096 4.6781,6.41977 4.6781,10.55642c0,4.13664 -1.26431,7.81502 -3.79158,11.03377c-2.52727,3.2092 -5.81012,4.81449 -9.84719,4.81449c-4.04662,0 -7.26538,-1.28614 -9.65625,-3.85977c-2.20948,-2.19993 -3.45061,-4.95497 -3.72339,-8.2651c-0.09138,-0.91789 -0.09138,-1.47298 0,-1.66393l2.61864,0.13639c-0.09138,3.21875 0.91789,5.88786 3.02781,8.00596c1.74577,1.92716 4.30031,2.89142 7.66499,2.89142c3.35514,0 6.04198,-1.30933 8.06051,-3.92797c2.01854,-2.61864 3.02781,-5.65054 3.02781,-9.09706c0,-3.44652 -1.19066,-6.22883 -3.57336,-8.34693c-2.6732,-2.66365 -6.95168,-3.99616 -12.83409,-3.99616c-5.88241,0 -10.75145,2.13719 -14.60713,6.41022c-3.86386,4.27302 -5.79648,9.4203 -5.79648,15.43909c0,6.02834 2.48225,11.15652 7.44677,15.38454c2.93643,2.57364 5.94651,4.40941 9.02887,5.51006c3.08236,1.10065 7.19719,1.65029 12.34308,1.65029l0.00001,0zm23.44505,-94.85768c0,-4.04662 1.03246,-7.40177 3.096,-10.06541c2.07309,-2.6732 4.90042,-4.0098 8.48331,-4.0098c6.15518,0 9.23345,3.38242 9.23345,10.14725c0,6.75529 -3.35514,13.1205 -10.06541,19.09428c2.02809,0.91789 4.14209,1.37752 6.34203,1.37752c5.701,0 10.25227,-1.86442 13.65241,-5.5919c3.40014,-3.71929 5.1009,-8.0837 5.1009,-13.09322c0,-5.00952 -1.83714,-9.26073 -5.51006,-12.75226c-4.50079,-4.04662 -10.42957,-6.06925 -17.78497,-6.06925c-7.35539,0 -13.60741,1.79077 -18.75331,5.37368c-8.00187,5.701 -12.00212,13.0564 -12.00212,22.06754c0,7.44677 2.48225,12.87091 7.44677,16.27106c6.15518,-1.38161 11.85618,-3.86386 17.10302,-7.44677c-4.22802,-3.77385 -6.34203,-8.87475 -6.34203,-15.3027l0.00001,-0.00001zm11.44293,-11.59296c-2.75504,0 -4.89223,1.05973 -6.41022,3.17784c-1.518,2.10991 -2.27767,4.91405 -2.27767,8.41512c0,5.97379 1.88215,10.52504 5.64645,13.65241c2.76458,-1.93671 5.06407,-4.55944 6.90122,-7.86957c1.83714,-3.31013 2.75504,-6.57389 2.75504,-9.79264c0,-5.05589 -2.20539,-7.58316 -6.61481,-7.58316zm54.04228,75.98162c-2.75504,3.31013 -6.20155,4.96452 -10.3382,4.96452c-4.13664,0 -7.37858,-1.05973 -9.72444,-3.17784c-2.34587,-2.10991 -3.51881,-4.86495 -3.51881,-8.2651c0,-1.20021 0.7365,-6.20973 2.20948,-15.02993l4.54172,-24.68618l-5.78284,0l0.27277,-2.48225l5.93287,0c6.80166,0 11.81118,-0.27277 15.02993,-0.81833l1.92307,-0.4228l-9.50622,52.1274c2.75504,-0.28232 5.05043,-1.56846 6.88758,-3.85977l2.07309,1.65029l0,-0.00001zm-12.1385,-63.14753c-1.92716,-1.93671 -2.89142,-4.28257 -2.89142,-7.03761c0,-2.75504 0.96427,-5.12408 2.89142,-7.1058c1.92716,-1.97353 4.27302,-2.95962 7.03761,-2.95962c2.75504,0 5.11864,0.98608 7.09216,2.95962c1.98171,1.98171 2.97325,4.35077 2.97325,7.1058c0,2.75504 -0.99154,5.1009 -2.97325,7.03761c-1.97353,1.92716 -4.33713,2.89142 -7.09216,2.89142c-2.76458,0 -5.11045,-0.96427 -7.03761,-2.89142zm73.35478,65.35701c2.20948,0 4.50898,-1.28614 6.90122,-3.85977l2.05945,1.65029c-0.64648,1.29159 -2.069,2.44134 -4.26893,3.45061c-2.20948,1.00927 -4.64673,1.51391 -7.31038,1.51391c-8.36602,0 -12.54768,-3.76839 -12.54768,-11.30654c0,-3.21875 0.82652,-8.96477 2.48225,-17.23941c1.65438,-8.27464 2.48225,-13.69742 2.48225,-16.27106c0,-3.9457 -1.88761,-5.91922 -5.66009,-5.91922c-3.02781,0 -5.94651,1.97353 -8.7561,5.91922c-2.80141,3.95525 -5.11999,9.37939 -6.95578,16.27106l-4.69173,25.79093c2.85459,-0.28232 5.20046,-1.56846 7.03761,-3.85977l2.05945,1.65029c-2.75504,3.31013 -6.20155,4.96452 -10.3382,4.96452c-4.138,0 -7.37858,-1.05973 -9.72444,-3.17784c-2.33768,-2.10991 -3.50516,-4.86495 -3.50516,-8.2651c0,-1.29159 0.73104,-6.34612 2.19584,-15.16632l4.55535,-25.51814c-2.75504,0.28232 -5.05589,1.56846 -6.90122,3.85977l-2.05945,-1.65029c2.75504,-3.31013 6.22337,-4.96452 10.40639,-4.96452c4.18165,0 7.42358,1.05973 9.72444,3.17784c2.2995,2.10991 3.45061,5.09681 3.45061,8.96068l0,0.83196c3.7643,-8.64698 9.6467,-12.97048 17.64857,-12.97048c5.41868,0 9.6467,1.54119 12.68406,4.62354c3.02781,3.08236 4.54172,7.33357 4.54172,12.75226c0,2.84641 -0.87288,8.33739 -2.61864,16.47564c-1.74577,8.13825 -2.71002,14.22933 -2.89142,18.27596l0,-0.00001zm67.14914,0c2.19993,0 4.49534,-1.28614 6.88758,-3.85977l2.07309,1.65029c-0.64648,1.29159 -2.07309,2.44134 -4.28257,3.45061c-2.2013,1.00927 -4.63309,1.51391 -7.29674,1.51391c-8.36602,0 -12.54768,-3.76839 -12.54768,-11.30654c0,-3.21875 0.82652,-8.96477 2.48225,-17.23941c1.65438,-8.27464 2.48225,-13.69742 2.48225,-16.27106c0,-3.9457 -1.88761,-5.91922 -5.66009,-5.91922c-3.12873,0 -6.13745,2.11402 -9.02887,6.34203c-2.90096,4.22802 -5.27002,9.96995 -7.1058,17.22577l-4.54172,25.92731l-16.55747,0l15.31634,-86.59257c-2.76458,0.27277 -5.06544,1.55891 -6.90122,3.85977l-2.07309,-1.65029c2.76321,-3.31013 6.23701,-4.96452 10.42002,-4.96452c4.18165,0 7.42358,1.05427 9.72444,3.1642c2.29131,2.1181 3.43697,5.105 3.43697,8.96068c0,0.7365 -0.09138,1.93261 -0.27277,3.587l-5.79648,32.67851c3.77248,-8.45604 9.60988,-12.68406 17.51218,-12.68406c5.42823,0 9.66034,1.54119 12.6977,4.62354c3.02781,3.08236 4.54172,7.33357 4.54172,12.75226c0,2.84641 -0.87288,8.33739 -2.61864,16.47564c-1.74577,8.13825 -2.71002,14.22933 -2.89142,18.27596l0,-0.00003zm66.24761,-23.58143c-2.52863,-1.92716 -4.75994,-4.86904 -6.69663,-8.82429c-1.92852,-3.95525 -2.89142,-8.41512 -2.89142,-13.37964c0,-4.96452 0.7815,-9.56078 2.34587,-13.7888c1.563,-4.22802 3.8816,-8.0646 6.95578,-11.51112c3.08236,-3.44652 7.19581,-6.20564 12.34308,-8.27873c5.14591,-2.06354 10.61506,-3.096 16.40745,-3.096c5.79102,0 11.03377,0.43644 15.7255,1.30933c4.6822,0.87288 8.36057,1.79077 11.03377,2.75504c2.66365,0.96427 5.02725,1.88215 7.09216,2.75504c2.07309,0.88243 3.75067,1.57255 5.03271,2.07309c1.29023,0.50873 2.07309,0.80878 2.34587,0.90015c0.28096,0.09138 1.01745,0.36416 2.20948,0.81833c1.19066,0.46371 1.99535,0.74059 2.41406,0.83196c0.40916,0.09138 1.14566,0.32323 2.20948,0.69557c1.05427,0.36416 1.88215,0.59056 2.48225,0.68193c0.59056,0.09138 1.39524,0.25504 2.41406,0.49099c1.00927,0.22777 1.88215,0.36416 2.61864,0.40916c0.7365,0.045 1.60938,0.1132 2.61864,0.20458c1.00927,0.09138 1.97216,0.13639 2.89142,0.13639c4.50079,0 8.42876,-0.75968 11.7839,-2.27767c3.35514,-1.50981 5.79102,-3.18739 7.31038,-5.03271c1.518,-1.83714 2.73594,-3.95115 3.65519,-6.34203c1.10884,-2.93643 1.66393,-5.60145 1.66393,-7.99232l3.02781,0c0,2.20948 -0.57283,4.89632 -1.71849,8.06051c-1.15521,3.17375 -2.58318,5.84148 -4.28257,8.00596c-1.70075,2.15493 -4.4326,4.10527 -8.19691,5.85103c-3.77385,1.75532 -8.25692,2.63228 -13.44783,2.63228c-5.19229,0 -10.41183,-0.82787 -15.65731,-2.48225c-6.24656,8.8202 -12.81636,26.60515 -19.70803,53.35489c-3.40152,13.42056 -8.29783,23.19001 -14.68896,29.30973c-6.3925,6.11017 -15.63004,9.16526 -27.71399,9.16526c-12.0935,0 -21.12646,-3.67838 -27.10024,-11.03377c-5.23729,-6.52888 -7.85593,-14.11204 -7.85593,-22.74947c0,-1.10065 0.045,-2.20539 0.13639,-3.31423l3.17784,0l0,1.93671c0,6.33793 1.69939,12.54358 5.1009,18.61693c1.46343,2.57364 3.23239,4.80085 5.30548,6.683c2.06354,1.88215 4.84585,3.46833 8.34693,4.75994c3.49152,1.28204 7.39631,1.92307 11.7157,1.92307c7.16445,0 12.83818,-2.89552 17.02119,-8.6879c4.18165,-5.79239 8.22827,-16.98028 12.1385,-33.56502c3.90887,-16.59429 7.91048,-28.45457 12.00212,-35.58356c4.09163,-7.11943 10.04223,-11.23426 17.85316,-12.34308c-2.39225,-0.91789 -4.9195,-1.95035 -7.58316,-3.096c-2.66502,-1.14566 -5.21547,-2.15902 -7.65135,-3.04144c-2.43725,-0.87288 -5.93287,-1.74577 -10.48821,-2.61864c-4.54716,-0.87288 -9.62489,-1.30933 -15.23451,-1.30933c-5.60145,0 -10.81555,1.01336 -15.64367,3.04144c-4.82813,2.01854 -8.5747,4.6822 -11.23835,7.99232c-5.33821,6.4375 -8.00596,13.88427 -8.00596,22.34031c0,4.78312 0.87698,8.98795 2.63228,12.61587c1.74577,3.62791 3.85977,6.31475 6.34203,8.06051c5.05453,3.40969 9.65079,5.3423 13.7888,5.79648l2.61864,0.27277l-0.83196,3.04144c-2.30086,0 -5.26456,-0.71331 -8.89248,-2.14129c-3.62791,-1.42798 -6.70618,-3.10555 -9.23345,-5.03271l0,-0.00001zm142.48563,26.33647c-8.0837,0 -12.49311,-3.53654 -13.22961,-10.61097c-4.04662,7.07443 -9.14752,10.61097 -15.3027,10.61097c-6.16473,0 -11.06104,-1.85896 -14.68896,-5.57826c-3.63746,-3.72748 -5.45551,-8.94704 -5.45551,-15.65731c0,-10.47458 2.57773,-18.70285 7.73319,-24.68618c5.14591,-5.97379 11.81118,-8.96068 19.99445,-8.96068c6.71027,0 11.16606,3.17375 13.366,9.51986c0.46371,-2.75504 0.96835,-5.51416 1.51391,-8.27873c6.80984,0 11.86982,-0.27277 15.17996,-0.81833l1.78668,-0.4228l-9.51986,52.1274c2.76458,-0.28232 5.06407,-1.56846 6.90122,-3.85977l2.07309,1.65029c-2.76458,3.31013 -6.21519,4.96452 -10.35183,4.96452l-0.00002,0zm-33.08767,-14.19797c0,4.13664 0.52782,7.01033 1.5821,8.61971c1.05427,1.59983 2.68683,2.40042 4.89632,2.40042c2.20948,0 4.45988,-1.19066 6.7512,-3.57336c3.03736,-3.12737 5.47323,-7.08261 7.31038,-11.86573c0.28232,-1.19066 0.81424,-4.06435 1.59574,-8.61971c0.7815,-4.54581 1.44571,-8.29237 1.99126,-11.23835c-0.27277,-3.49152 -1.23704,-6.52343 -2.89142,-9.09706c-1.65438,-2.57364 -3.72339,-3.85977 -6.20564,-3.85977c-4.50079,0 -8.1328,4.02344 -10.89738,12.07031c-2.75504,8.03733 -4.13255,16.42518 -4.13255,25.16353zm8.27873,-64.81146l3.57336,-1.37752l7.31038,14.62077l-3.587,1.37752l-7.29674,-14.62077zm68.38209,74.04491c-2.75504,3.31013 -6.20155,4.96452 -10.3382,4.96452c-4.138,0 -7.37858,-1.05973 -9.72444,-3.17784c-2.34587,-2.10991 -3.51881,-4.86495 -3.51881,-8.2651c0,-1.20021 0.7365,-6.20973 2.20948,-15.02993l4.54172,-24.68618l-5.78284,0l0.27277,-2.48225l5.93287,0c6.80029,0 11.81118,-0.27277 15.02993,-0.81833l1.92307,-0.4228l-9.50622,52.1274c2.75504,-0.28232 5.05043,-1.56846 6.88758,-3.85977l2.07309,1.65029l0,-0.00001zm-12.1385,-63.14753c-1.92852,-1.93671 -2.89142,-4.28257 -2.89142,-7.03761c0,-2.75504 0.9629,-5.12408 2.89142,-7.1058c1.92716,-1.97353 4.27302,-2.95962 7.03761,-2.95962c2.75504,0 5.11864,0.98608 7.09216,2.95962c1.98171,1.98171 2.97325,4.35077 2.97325,7.1058c0,2.75504 -0.99154,5.1009 -2.97325,7.03761c-1.97353,1.92716 -4.33713,2.89142 -7.09216,2.89142c-2.76458,0 -5.11045,-0.96427 -7.03761,-2.89142z" fill="#2e7d32" id="svg_2"/>
  <path d="m154.64092,188.36c-5.40348,0 -9.37733,-2.07537 -11.92157,-6.22732c-2.54424,-4.15195 -3.81636,-9.55906 -3.81636,-16.22254c0,-6.85733 1.23214,-12.29351 3.6952,-16.30735c2.47154,-4.01384 6.48538,-6.02136 12.04272,-6.02136c10.45924,0 15.68946,7.4425 15.68946,22.32871c0,6.77615 -1.27212,12.21234 -3.81636,16.30735c-2.54424,4.09501 -6.50234,6.14252 -11.87311,6.14252zm0,-5.99713c3.21422,0 5.43982,-1.53866 6.67559,-4.61597c1.23577,-3.06883 1.85366,-7.01483 1.85366,-11.83676c0,-5.05576 -0.60941,-9.05022 -1.82943,-11.98215c-1.21154,-2.94041 -3.44441,-4.41001 -6.69982,-4.41001c-3.24693,0 -5.48828,1.4696 -6.72406,4.41001c-1.23577,2.93193 -1.85366,6.92638 -1.85366,11.98215c0,10.96809 2.85924,16.45273 8.57771,16.45273zm32.19672,5.11271l7.58425,-13.21792c0.15265,-0.27502 0.58517,-1.00194 1.29635,-2.18077c0.70269,-1.17156 1.24789,-1.99056 1.63558,-2.45943c-1.44658,1.29271 -3.54255,1.93847 -6.2879,1.93847c-2.58543,0 -4.88251,-0.60941 -6.89367,-1.82943c-2.01964,-1.21154 -3.58616,-2.87499 -4.70078,-4.99155c-1.1231,-2.11656 -1.68404,-4.46695 -1.68404,-7.05117c0,-2.77806 0.64575,-5.23749 1.93847,-7.37829c1.2915,-2.13231 3.10518,-3.78364 5.43982,-4.9552c2.33343,-1.17883 5.0279,-1.76885 8.08098,-1.76885c2.66539,0 5.09211,0.57791 7.28136,1.7325c2.19652,1.1546 3.93266,2.83137 5.20963,5.0279c1.26727,2.18926 1.90212,4.73349 1.90212,7.63271c0,1.88152 -0.25442,3.70368 -0.76327,5.46405c-0.50885,1.76885 -1.68404,4.45484 -3.52559,8.05675c-1.84154,3.60191 -4.7977,8.92906 -8.86848,15.98023l-7.64483,0zm5.8154,-21.56544c2.39037,0 4.36155,-0.72329 5.91232,-2.16866c1.54229,-1.45385 2.31404,-3.4323 2.31404,-5.93655c0,-2.51153 -0.76327,-4.55903 -2.28981,-6.14252c-1.52654,-1.59075 -3.44562,-2.38674 -5.75482,-2.38674c-2.50426,0 -4.51178,0.79598 -6.02136,2.38674c-1.51079,1.58348 -2.26558,3.61039 -2.26558,6.08194c0,2.54424 0.78266,4.54328 2.35039,5.99713c1.56652,1.44537 3.48439,2.16866 5.75482,2.16866zm25.78887,21.56544l14.40523,-37.42452l-20.09947,0l0,-5.76694l28.38642,0l-15.1685,43.19146l-7.52367,0zm43.24719,0.88443c-2.66539,0 -5.10422,-0.57791 -7.31771,-1.7325c-2.21349,-1.1546 -3.95326,-2.82289 -5.22174,-5.00367c-1.27575,-2.17229 -1.91424,-4.70926 -1.91424,-7.60848c0,-2.03539 0.315,-4.04291 0.945,-6.02136c0.62152,-1.97845 1.95058,-4.82557 3.98597,-8.54137c2.04387,-3.72307 5.29444,-9.26829 9.75291,-16.63447l5.64578,3.29539c-3.83695,5.79117 -6.87308,10.64582 -9.11079,14.56273c-0.15387,0.27502 -0.31137,0.54883 -0.4725,0.82385c-0.15387,0.27502 -0.28714,0.4725 -0.39981,0.59366c0.62152,-0.59002 1.46233,-1.06252 2.52001,-1.4175c1.05768,-0.34771 2.27406,-0.52096 3.64674,-0.52096c2.58422,0 4.87403,0.61789 6.86944,1.85366c2.00268,1.22729 3.54134,2.87135 4.61597,4.93097c1.07464,2.05962 1.61135,4.28038 1.61135,6.66348c0,3.06157 -0.64575,5.70636 -1.93847,7.9356c-1.29271,2.23772 -3.0858,3.93388 -5.37924,5.08847c-2.28618,1.1546 -4.89826,1.7325 -7.83867,1.7325zm0.41192,-5.76694c2.46306,0 4.41365,-0.78387 5.85175,-2.35039c1.42962,-1.56652 2.14443,-3.58253 2.14443,-6.04559c0,-2.58422 -0.73541,-4.63172 -2.20501,-6.14252c-1.4696,-1.51079 -3.34385,-2.26558 -5.62155,-2.26558c-2.50426,0 -4.51057,0.76691 -6.02136,2.30193c-1.50231,1.52654 -2.25347,3.60191 -2.25347,6.22732c0,2.3831 0.77175,4.35791 2.31404,5.92444c1.55077,1.56652 3.48076,2.35039 5.79117,2.35039zm37.66198,5.76694c-2.74535,0 -5.25324,-0.54883 -7.52367,-1.6477c-2.26922,-1.09887 -4.07078,-2.65691 -5.40348,-4.67655c-1.3327,-2.01116 -1.99904,-4.34943 -1.99904,-7.01483c0,-2.78655 0.65423,-5.07999 1.9627,-6.88156c1.31695,-1.80156 2.99251,-3.12941 5.0279,-3.98597c-1.52654,-0.90502 -2.76958,-2.13231 -3.73155,-3.68309c-0.96075,-1.54229 -1.44173,-3.2748 -1.44173,-5.19751c0,-2.35039 0.56942,-4.40638 1.70827,-6.16675c1.13158,-1.76037 2.6981,-3.12214 4.70078,-4.08289c1.99541,-0.96075 4.22828,-1.44173 6.69982,-1.44173c2.46428,0 4.69715,0.48098 6.69982,1.44173c1.99541,0.96075 3.56193,2.31404 4.70078,4.05866c1.13158,1.73614 1.69616,3.75941 1.69616,6.06982c0,2.11656 -0.49673,3.92903 -1.4902,5.43982c-1.00073,1.51079 -2.30556,2.71385 -3.91328,3.61039c2.07658,0.90502 3.80061,2.24983 5.17328,4.03443c1.37389,1.77733 2.05962,4.03807 2.05962,6.78463c0,2.66539 -0.66635,5.00367 -1.99904,7.01483c-1.3327,2.01964 -3.14516,3.57768 -5.43982,4.67655c-2.29345,1.09887 -4.78922,1.6477 -7.48733,1.6477zm0,-26.92045c1.76158,0 3.26753,-0.63364 4.51905,-1.90212c1.25273,-1.27575 1.87789,-2.79503 1.87789,-4.5554c0,-1.84154 -0.58517,-3.34022 -1.75674,-4.49482c-1.17883,-1.1546 -2.72597,-1.7325 -4.6402,-1.7325c-1.9627,0 -3.52922,0.57791 -4.70078,1.7325c-1.17883,1.1546 -1.76885,2.65328 -1.76885,4.49482c0,1.80156 0.61062,3.3281 1.82943,4.57963c1.21154,1.25152 2.75868,1.87789 4.6402,1.87789zm0,21.15352c2.46428,0 4.4512,-0.73056 5.96078,-2.19289c1.51079,-1.4696 2.26558,-3.32326 2.26558,-5.56098c0,-2.22924 -0.78266,-4.07926 -2.35039,-5.54886c-1.56652,-1.4696 -3.52559,-2.20501 -5.87598,-2.20501c-2.39037,0 -4.36882,0.71481 -5.93655,2.14443c-1.56652,1.42962 -2.35039,3.29903 -2.35039,5.60944c0,2.23772 0.756,4.09138 2.26558,5.56098c1.50231,1.46233 3.50984,2.19289 6.02136,2.19289zm37.95275,5.76694c-2.74535,0 -5.25324,-0.54883 -7.52367,-1.6477c-2.26922,-1.09887 -4.07078,-2.65691 -5.40348,-4.67655c-1.3327,-2.01116 -1.99904,-4.34943 -1.99904,-7.01483c0,-2.78655 0.65423,-5.07999 1.9627,-6.88156c1.31695,-1.80156 2.99251,-3.12941 5.0279,-3.98597c-1.52654,-0.90502 -2.76958,-2.13231 -3.73155,-3.68309c-0.96075,-1.54229 -1.44173,-3.2748 -1.44173,-5.19751c0,-2.35039 0.56942,-4.40638 1.70827,-6.16675c1.13158,-1.76037 2.6981,-3.12214 4.70078,-4.08289c1.99541,-0.96075 4.22828,-1.44173 6.69982,-1.44173c2.46428,0 4.69715,0.48098 6.69982,1.44173c1.99541,0.96075 3.56193,2.31404 4.70078,4.05866c1.13158,1.73614 1.69616,3.75941 1.69616,6.06982c0,2.11656 -0.49673,3.92903 -1.4902,5.43982c-1.00073,1.51079 -2.30556,2.71385 -3.91328,3.61039c2.07658,0.90502 3.80061,2.24983 5.17328,4.03443c1.37389,1.77733 2.05962,4.03807 2.05962,6.78463c0,2.66539 -0.66635,5.00367 -1.99904,7.01483c-1.3327,2.01964 -3.14516,3.57768 -5.43982,4.67655c-2.29345,1.09887 -4.78922,1.6477 -7.48733,1.6477zm0,-26.92045c1.76158,0 3.26753,-0.63364 4.51905,-1.90212c1.25273,-1.27575 1.87789,-2.79503 1.87789,-4.5554c0,-1.84154 -0.58517,-3.34022 -1.75674,-4.49482c-1.17883,-1.1546 -2.72597,-1.7325 -4.6402,-1.7325c-1.9627,0 -3.52922,0.57791 -4.70078,1.7325c-1.17883,1.1546 -1.76885,2.65328 -1.76885,4.49482c0,1.80156 0.61062,3.3281 1.82943,4.57963c1.21154,1.25152 2.75868,1.87789 4.6402,1.87789zm0,21.15352c2.46428,0 4.4512,-0.73056 5.96078,-2.19289c1.51079,-1.4696 2.26558,-3.32326 2.26558,-5.56098c0,-2.22924 -0.78266,-4.07926 -2.35039,-5.54886c-1.56652,-1.4696 -3.52559,-2.20501 -5.87598,-2.20501c-2.39037,0 -4.36882,0.71481 -5.93655,2.14443c-1.56652,1.42962 -2.35039,3.29903 -2.35039,5.60944c0,2.23772 0.756,4.09138 2.26558,5.56098c1.50231,1.46233 3.50984,2.19289 6.02136,2.19289zm38.06179,5.76694c-5.40348,0 -9.37733,-2.07537 -11.92157,-6.22732c-2.54424,-4.15195 -3.81636,-9.55906 -3.81636,-16.22254c0,-6.85733 1.23214,-12.29351 3.6952,-16.30735c2.47154,-4.01384 6.48659,-6.02136 12.04272,-6.02136c10.46045,0 15.68946,7.4425 15.68946,22.32871c0,6.77615 -1.27212,12.21234 -3.81636,16.30735c-2.54424,4.09501 -6.50113,6.14252 -11.87311,6.14252zm0,-5.99713c3.21543,0 5.43982,-1.53866 6.67559,-4.61597c1.23577,-3.06883 1.85366,-7.01483 1.85366,-11.83676c0,-5.05576 -0.60941,-9.05022 -1.82943,-11.98215c-1.21154,-2.94041 -3.44441,-4.41001 -6.69982,-4.41001c-3.24693,0 -5.48828,1.4696 -6.72406,4.41001c-1.23577,2.93193 -1.85366,6.92638 -1.85366,11.98215c0,10.96809 2.85924,16.45273 8.57771,16.45273zm38.01212,5.99713c-5.40348,0 -9.37733,-2.07537 -11.92157,-6.22732c-2.54424,-4.15195 -3.81636,-9.55906 -3.81636,-16.22254c0,-6.85733 1.23214,-12.29351 3.6952,-16.30735c2.47154,-4.01384 6.48538,-6.02136 12.04272,-6.02136c10.45924,0 15.68946,7.4425 15.68946,22.32871c0,6.77615 -1.27212,12.21234 -3.81636,16.30735c-2.54424,4.09501 -6.50234,6.14252 -11.87311,6.14252zm0,-5.99713c3.21422,0 5.43982,-1.53866 6.67559,-4.61597c1.23577,-3.06883 1.85366,-7.01483 1.85366,-11.83676c0,-5.05576 -0.60941,-9.05022 -1.82943,-11.98215c-1.21154,-2.94041 -3.44441,-4.41001 -6.69982,-4.41001c-3.24693,0 -5.48828,1.4696 -6.72406,4.41001c-1.23577,2.93193 -1.85366,6.92638 -1.85366,11.98215c0,10.96809 2.85924,16.45273 8.57771,16.45273zm23.1465,5.11271l14.51427,-18.16101c1.84154,-2.46306 3.3802,-4.75288 4.61597,-6.86944c1.23577,-2.11656 1.85366,-4.07441 1.85366,-5.87598c0,-2.19652 -0.57791,-3.8733 -1.7325,-5.0279c-1.15581,-1.1546 -2.88832,-1.7325 -5.19751,-1.7325c-2.11656,0 -3.8212,0.59002 -5.11271,1.76885c-1.3012,1.17156 -2.37947,2.60118 -3.23482,4.28886l-5.46405,-2.94405c1.3642,-2.62541 3.16576,-4.83769 5.40348,-6.63925c2.22924,-1.80156 5.08847,-2.70174 8.57771,-2.70174c4.34459,0 7.67633,1.12673 9.99522,3.3802c2.3092,2.25347 3.46501,5.20115 3.46501,8.84425c0,4.74076 -2.35039,9.99158 -7.05117,15.75004l-7.99617,10.10426l16.7435,0l0,5.8154l-29.37988,0zm52.81836,0.88443c-5.40348,0 -9.37733,-2.07537 -11.92157,-6.22732c-2.54424,-4.15195 -3.81636,-9.55906 -3.81636,-16.22254c0,-6.85733 1.23093,-12.29351 3.6952,-16.30735c2.47154,-4.01384 6.48538,-6.02136 12.04272,-6.02136c10.45924,0 15.68946,7.4425 15.68946,22.32871c0,6.77615 -1.27212,12.21234 -3.81636,16.30735c-2.54424,4.09501 -6.50234,6.14252 -11.87311,6.14252zm0,-5.99713c3.21422,0 5.43982,-1.53866 6.67559,-4.61597c1.23577,-3.06883 1.85366,-7.01483 1.85366,-11.83676c0,-5.05576 -0.61062,-9.05022 -1.82943,-11.98215c-1.21154,-2.94041 -3.44562,-4.41001 -6.69982,-4.41001c-3.24693,0 -5.48828,1.4696 -6.72406,4.41001c-1.23577,2.93193 -1.85366,6.92638 -1.85366,11.98215c0,10.96809 2.85924,16.45273 8.57771,16.45273z" fill="#e85f93" id="svg_3"/>
 </g>&gt;</svg>