<svg width="208" height="60" xmlns="http://www.w3.org/2000/svg" xmlns:svg="http://www.w3.org/2000/svg">
 <style type="text/css">.st0{display:none;enable-background:new    ;}
	.st1{display:inline;fill:#1CA766;}
	.st2{fill:#151B26;}
	.st3{fill:#FFFFFF;}</style>
 <g class="layer">
  <title>Logo</title>
  <g id="svg_1">
   <path d="m72.087,31.8c-0.135,1.576 -0.563,2.792 -1.281,3.647c-0.719,0.856 -1.675,1.284 -2.867,1.284c-1.292,0 -2.329,-0.63 -3.108,-1.892c-0.779,-1.261 -1.168,-2.948 -1.168,-5.062l0,-1.432c0,-1.384 0.181,-2.601 0.544,-3.65s0.878,-1.855 1.544,-2.418c0.666,-0.563 1.438,-0.844 2.314,-0.844c1.162,0 2.094,0.441 2.796,1.325c0.701,0.883 1.109,2.105 1.225,3.668l-1.45,0c-0.125,-1.189 -0.397,-2.051 -0.815,-2.584c-0.418,-0.533 -1.003,-0.8 -1.755,-0.8c-0.922,0 -1.645,0.464 -2.168,1.391c-0.523,0.928 -0.785,2.247 -0.785,3.958l0,1.442c0,1.616 0.248,2.901 0.744,3.855c0.496,0.954 1.189,1.432 2.082,1.432c0.801,0 1.417,-0.247 1.845,-0.741s0.712,-1.354 0.853,-2.581l1.45,0l0,0.002z" fill="#818285" id="svg_2"/>
   <path d="m82.516,24.585c0,1.228 -0.184,2.093 -0.552,2.594s-0.953,0.765 -1.754,0.792l0,8.558l-1.323,0l-0.03,-1.095c-0.541,0.865 -1.335,1.298 -2.382,1.298c-0.867,0 -1.527,-0.343 -1.98,-1.027c-0.453,-0.685 -0.683,-1.698 -0.688,-3.041l0,-7.197l1.391,0l0,7.143c0,1.676 0.501,2.514 1.503,2.514c1.062,0 1.769,-0.538 2.119,-1.614l0,-8.042l1.391,0l0,1.339c0.34,-0.014 0.596,-0.08 0.766,-0.199s0.292,-0.302 0.365,-0.547c0.072,-0.246 0.109,-0.737 0.109,-1.474l1.065,0l0,-0.002zm-5.831,-0.729l-0.008,-1.564c0.375,-0.034 0.651,-0.103 0.826,-0.204c0.176,-0.103 0.264,-0.287 0.264,-0.553s-0.114,-0.465 -0.342,-0.598s-0.53,-0.199 -0.906,-0.199l0.053,-1.085c0.747,0 1.313,0.176 1.698,0.526c0.386,0.352 0.579,0.816 0.579,1.396c0,0.416 -0.098,0.76 -0.293,1.033c-0.195,0.272 -0.486,0.446 -0.872,0.521l-0.007,0.726l-0.992,0l0,0.001z" fill="#818285" id="svg_3"/>
   <path d="m88.384,36.528c-0.08,-0.219 -0.146,-0.608 -0.195,-1.169c-0.646,0.915 -1.418,1.372 -2.314,1.372c-0.802,0 -1.459,-0.309 -1.973,-0.927c-0.514,-0.617 -0.771,-1.4 -0.771,-2.35c0,-1.154 0.322,-2.05 0.966,-2.688c0.644,-0.639 1.549,-0.958 2.717,-0.958l1.353,0l0,-0.867c0,-0.66 -0.146,-1.186 -0.436,-1.577c-0.291,-0.391 -0.719,-0.587 -1.285,-0.587c-0.496,0 -0.912,0.17 -1.248,0.51c-0.335,0.339 -0.503,0.75 -0.503,1.232l-1.398,0c0,-0.552 0.145,-1.086 0.433,-1.601c0.288,-0.516 0.679,-0.923 1.172,-1.223c0.494,-0.3 1.036,-0.45 1.627,-0.45c0.937,0 1.671,0.319 2.202,0.957c0.531,0.639 0.807,1.517 0.827,2.636l0,5.099c0,1.017 0.095,1.825 0.286,2.426l0,0.164l-1.46,0l0,0.001zm-2.307,-1.437c0.436,0 0.849,-0.153 1.24,-0.462c0.391,-0.307 0.674,-0.707 0.85,-1.199l0,-2.276l-1.09,0c-1.703,0 -2.555,0.681 -2.555,2.04c0,0.596 0.145,1.061 0.436,1.395c0.29,0.335 0.663,0.502 1.119,0.502z" fill="#818285" id="svg_4"/>
   <path d="m93.403,34.919l5.185,0l0,1.609l-6.636,0l0,-14.89l1.451,0l0,13.281z" fill="#818285" id="svg_5"/>
   <path d="m108.363,24.585c0,1.228 -0.185,2.093 -0.553,2.594s-0.953,0.765 -1.755,0.792l0,8.558l-1.322,0l-0.03,-1.095c-0.541,0.865 -1.335,1.298 -2.382,1.298c-0.867,0 -1.527,-0.343 -1.98,-1.027c-0.454,-0.685 -0.683,-1.698 -0.688,-3.041l0,-7.197l1.39,0l0,7.143c0,1.676 0.501,2.514 1.503,2.514c1.062,0 1.769,-0.538 2.119,-1.614l0,-8.042l1.39,0l0,1.339c0.341,-0.014 0.596,-0.08 0.767,-0.199s0.292,-0.302 0.364,-0.547c0.073,-0.246 0.109,-0.737 0.109,-1.474l1.068,0l0,-0.002z" fill="#818285" id="svg_6"/>
   <path d="m108.843,30.887c0,-1.085 0.154,-2.059 0.462,-2.922c0.308,-0.863 0.744,-1.532 1.308,-2.006c0.563,-0.475 1.203,-0.712 1.92,-0.712c1.037,0 1.896,0.471 2.578,1.413c0.355,-0.055 0.614,-0.253 0.774,-0.594s0.24,-0.948 0.24,-1.821l1.127,0c0,1.985 -0.519,3.151 -1.555,3.499c0.365,0.941 0.548,1.989 0.548,3.143l0,0.225c0,1.079 -0.156,2.051 -0.466,2.918s-0.746,1.533 -1.308,2.001c-0.561,0.468 -1.202,0.701 -1.924,0.701c-1.112,0 -2.008,-0.523 -2.687,-1.571c-0.679,-1.047 -1.018,-2.428 -1.018,-4.141l0,-0.133l0.001,0zm1.39,0.228c0,1.227 0.209,2.212 0.628,2.955c0.418,0.743 0.98,1.114 1.687,1.114c0.696,0 1.254,-0.373 1.672,-1.12c0.418,-0.746 0.627,-1.75 0.627,-3.012l0,-0.162c0,-1.233 -0.212,-2.222 -0.635,-2.966c-0.424,-0.742 -0.983,-1.114 -1.68,-1.114c-0.691,0 -1.248,0.372 -1.668,1.114c-0.42,0.744 -0.631,1.806 -0.631,3.191zm2.987,-10.305l1.683,0l-2.014,3.016l-1.12,-0.008l1.451,-3.008z" fill="#818285" id="svg_7"/>
   <path d="m118.01,22.531c0,-0.308 0.069,-0.567 0.207,-0.779c0.138,-0.211 0.342,-0.317 0.612,-0.317s0.476,0.106 0.616,0.317c0.14,0.212 0.21,0.472 0.21,0.779c0,0.307 -0.07,0.563 -0.21,0.768s-0.346,0.308 -0.616,0.308s-0.475,-0.103 -0.612,-0.308s-0.207,-0.461 -0.207,-0.768zm1.503,13.997l-1.39,0l0,-11.062l1.39,0l0,11.062z" fill="#818285" id="svg_8"/>
   <path d="m122.182,36.528l0,-6.813l-1.443,0l0,-1.547l1.443,0l0,-6.531l3.089,0c0.951,0 1.793,0.286 2.524,0.859c0.731,0.572 1.296,1.388 1.694,2.444s0.601,2.27 0.605,3.641l0,0.951c0,1.404 -0.199,2.635 -0.598,3.691s-0.967,1.868 -1.706,2.435c-0.739,0.565 -1.599,0.855 -2.581,0.869l-3.027,0l0,0.001zm3.336,-6.812l-1.894,0l0,5.203l1.511,0c1.112,0 1.978,-0.467 2.597,-1.401c0.618,-0.935 0.931,-2.25 0.936,-3.949l0,-0.951c0,-1.691 -0.292,-3.006 -0.875,-3.943c-0.584,-0.938 -1.412,-1.413 -2.484,-1.427l-1.684,0l0,4.922l1.894,0l0,1.546l-0.001,0z" fill="#818285" id="svg_9"/>
   <path d="m137.079,36.528c-0.08,-0.219 -0.146,-0.608 -0.195,-1.169c-0.646,0.915 -1.418,1.372 -2.315,1.372c-0.802,0 -1.459,-0.309 -1.973,-0.927c-0.514,-0.617 -0.771,-1.4 -0.771,-2.35c0,-1.154 0.322,-2.05 0.966,-2.688c0.644,-0.639 1.55,-0.958 2.717,-0.958l1.353,0l0,-0.867c0,-0.66 -0.145,-1.186 -0.436,-1.577c-0.291,-0.391 -0.719,-0.587 -1.285,-0.587c-0.496,0 -0.912,0.17 -1.247,0.51c-0.336,0.339 -0.504,0.75 -0.504,1.232l-1.397,0c0,-0.552 0.144,-1.086 0.432,-1.601c0.288,-0.516 0.679,-0.923 1.173,-1.223c0.493,-0.3 1.035,-0.45 1.627,-0.45c0.937,0 1.671,0.319 2.202,0.957c0.53,0.639 0.807,1.517 0.826,2.636l0,5.099c0,1.017 0.096,1.825 0.285,2.426l0,0.164l-1.458,0l0,0.001zm-0.918,-12.711l-1.195,0.008l-1.938,-3.016l1.676,0l1.457,3.008zm-1.39,11.274c0.436,0 0.849,-0.153 1.24,-0.462c0.391,-0.307 0.674,-0.707 0.849,-1.199l0,-2.276l-1.09,0c-1.703,0 -2.555,0.681 -2.555,2.04c0,0.596 0.146,1.061 0.436,1.395c0.291,0.335 0.664,0.502 1.12,0.502z" fill="#818285" id="svg_10"/>
   <path d="m149.055,36.528l-1.45,0l-5.508,-11.475l0,11.475l-1.451,0l0,-14.89l1.451,0l5.523,11.526l0,-11.526l1.435,0l0,14.89z" fill="#818285" id="svg_11"/>
   <path d="m156.425,36.528c-0.08,-0.219 -0.145,-0.608 -0.195,-1.169c-0.646,0.915 -1.418,1.372 -2.314,1.372c-0.802,0 -1.459,-0.309 -1.973,-0.927c-0.514,-0.617 -0.77,-1.4 -0.77,-2.35c0,-1.154 0.321,-2.05 0.965,-2.688c0.645,-0.639 1.55,-0.958 2.717,-0.958l1.354,0l0,-0.867c0,-0.66 -0.146,-1.186 -0.437,-1.577c-0.29,-0.391 -0.719,-0.587 -1.285,-0.587c-0.496,0 -0.912,0.17 -1.247,0.51c-0.336,0.339 -0.504,0.75 -0.504,1.232l-1.397,0c0,-0.552 0.144,-1.086 0.432,-1.601c0.288,-0.516 0.679,-0.923 1.173,-1.223c0.493,-0.3 1.035,-0.45 1.627,-0.45c0.937,0 1.67,0.319 2.201,0.957c0.531,0.639 0.807,1.517 0.827,2.636l0,5.099c0,1.017 0.095,1.825 0.286,2.426l0,0.164l-1.46,0l0,0.001zm0.462,-15.031c0,0.646 -0.202,1.169 -0.604,1.57c-0.404,0.401 -0.941,0.602 -1.612,0.602c-0.677,0 -1.216,-0.2 -1.62,-0.602c-0.402,-0.401 -0.604,-0.925 -0.604,-1.57l1.128,0c0,0.367 0.092,0.659 0.277,0.877s0.459,0.326 0.819,0.326c0.355,0 0.626,-0.108 0.812,-0.326s0.278,-0.51 0.278,-0.877l1.126,0zm-2.769,13.594c0.436,0 0.85,-0.153 1.24,-0.462c0.391,-0.307 0.674,-0.707 0.85,-1.199l0,-2.276l-1.09,0c-1.704,0 -2.556,0.681 -2.556,2.04c0,0.596 0.146,1.061 0.437,1.395c0.29,0.335 0.663,0.502 1.119,0.502zm2.701,-16.32c0,0.506 -0.121,0.938 -0.361,1.297c-0.24,0.359 -0.536,0.538 -0.887,0.538c-0.29,0 -0.585,-0.128 -0.883,-0.383s-0.558,-0.383 -0.777,-0.383c-0.171,0 -0.316,0.087 -0.437,0.26s-0.18,0.389 -0.18,0.646l-0.624,-0.215c0,-0.512 0.12,-0.95 0.36,-1.315c0.241,-0.365 0.534,-0.548 0.88,-0.548c0.24,0 0.521,0.128 0.845,0.383s0.595,0.383 0.815,0.383c0.176,0 0.323,-0.087 0.443,-0.26s0.181,-0.39 0.181,-0.649l0.625,0.246z" fill="#818285" id="svg_12"/>
   <path d="m161.087,25.466l0.045,1.378c0.621,-1.064 1.434,-1.597 2.436,-1.597c1.718,0 2.584,1.32 2.6,3.962l0,7.319l-1.391,0l0,-7.328c-0.005,-0.798 -0.139,-1.389 -0.401,-1.771c-0.264,-0.382 -0.673,-0.573 -1.229,-0.573c-0.45,0 -0.846,0.164 -1.187,0.491c-0.341,0.328 -0.606,0.758 -0.797,1.289l0,7.892l-1.391,0l0,-11.062l1.315,0z" fill="#818285" id="svg_13"/>
  </g>
  <g id="svg_14">
   <rect fill="#00a63f" height="4.709" id="svg_15" width="4.324" x="11.918" y="25.987"/>
   <rect fill="#00a63f" height="4.709" id="svg_16" width="4.323" x="17.683" y="25.987"/>
   <rect fill="#00a63f" height="4.709" id="svg_17" width="4.324" x="11.918" y="32.202"/>
   <rect fill="#00a63f" height="4.709" id="svg_18" width="4.323" x="17.683" y="32.202"/>
   <rect fill="#00a63f" height="4.709" id="svg_19" width="4.323" x="38.038" y="25.987"/>
   <rect fill="#00a63f" height="4.709" id="svg_20" width="4.323" x="43.802" y="25.987"/>
   <rect fill="#00a63f" height="4.709" id="svg_21" width="4.323" x="38.038" y="32.202"/>
   <rect fill="#00a63f" height="4.709" id="svg_22" width="4.323" x="43.802" y="32.202"/>
   <polygon fill="#00a63f" id="svg_23" points="59.92900085449219,18.31100082397461 43.10300064086914,6.258999824523926 43.09700012207031,6.25 43.09400177001953,6.251999855041504 43.09000015258789,6.25 43.084999084472656,6.258999824523926 30.0049991607666,15.628000259399414 16.92300033569336,6.257999897003174 16.917999267578125,6.25 16.915000915527344,6.251999855041504 16.91200065612793,6.25 16.906999588012695,6.257999897003174 7.685999870300293,12.86299991607666 7.685999870300293,9.07699966430664 0,9.07699966430664 0,52.119998931884766 7.685999870300293,52.119998931884766 7.685999870300293,22.884000778198242 16.915000915527344,16.273000717163086 25.93899917602539,22.736000061035156 25.93899917602539,52.119998931884766 33.625,52.119998931884766 33.625,23.055999755859375 43.09400177001953,16.273000717163086 52.237998962402344,22.82200050354004 52.237998962402344,52.05500030517578 59.92300033569336,52.05500030517578 59.92300033569336,18.36400032043457 59.895999908447266,18.36400032043457 "/>
  </g>
  <g id="svg_24">
   <path d="m171.513,26.869c-0.676,0 -1.205,0.357 -1.586,1.073c-0.38,0.714 -0.57,1.772 -0.57,3.174c0,1.247 0.188,2.226 0.563,2.937c0.375,0.713 0.901,1.067 1.578,1.067c0.877,0 1.521,-0.541 1.931,-1.623l0,-5.045c-0.426,-1.056 -1.064,-1.583 -1.916,-1.583z" fill="none" id="svg_25"/>
   <path d="m173.558,25.461l-0.068,1.23c-0.556,-0.953 -1.33,-1.431 -2.322,-1.431c-0.967,0 -1.742,0.511 -2.329,1.528c-0.586,1.019 -0.879,2.39 -0.879,4.114c0,1.798 0.294,3.219 0.883,4.261c0.589,1.043 1.358,1.564 2.311,1.564c0.962,0 1.72,-0.436 2.276,-1.309l0,0.953c0,0.943 -0.188,1.675 -0.567,2.193c-0.378,0.519 -0.906,0.779 -1.582,0.779c-0.094,0 -0.194,0.011 -0.296,0.026l-106.862,0l0,1.527l107.734,0l0,-0.063c0.827,-0.11 1.512,-0.495 2.035,-1.188c0.623,-0.825 0.935,-1.953 0.935,-3.387l0,-10.797l-1.269,0zm-0.129,8.036c-0.41,1.082 -1.054,1.623 -1.931,1.623c-0.677,0 -1.203,-0.354 -1.578,-1.067c-0.376,-0.711 -0.563,-1.689 -0.563,-2.937c0,-1.401 0.19,-2.46 0.57,-3.174c0.381,-0.716 0.91,-1.073 1.586,-1.073c0.853,0 1.49,0.526 1.916,1.583l0,5.045z" fill="#818285" id="svg_26"/>
  </g>
  <g id="svg_27">
   <path d="m150.016,51.538c0,-0.137 0.043,-0.253 0.13,-0.349c0.086,-0.096 0.206,-0.144 0.359,-0.144s0.274,0.048 0.362,0.144s0.132,0.212 0.132,0.349s-0.044,0.249 -0.132,0.337s-0.209,0.132 -0.362,0.132s-0.273,-0.044 -0.359,-0.132c-0.087,-0.088 -0.13,-0.2 -0.13,-0.337z" fill="#818285" id="svg_28"/>
   <path d="m155.194,51.483c0.479,0 0.881,-0.138 1.205,-0.413s0.5,-0.631 0.526,-1.068l0.661,0c-0.019,0.387 -0.138,0.739 -0.356,1.058c-0.219,0.319 -0.509,0.568 -0.871,0.748s-0.751,0.27 -1.165,0.27c-0.816,0 -1.464,-0.289 -1.941,-0.868c-0.478,-0.578 -0.717,-1.355 -0.717,-2.333l0,-0.211c0,-0.625 0.107,-1.179 0.322,-1.659s0.522,-0.852 0.924,-1.114c0.4,-0.262 0.869,-0.393 1.406,-0.393c0.683,0 1.245,0.207 1.688,0.621c0.442,0.415 0.68,0.96 0.71,1.636l-0.661,0c-0.03,-0.495 -0.206,-0.895 -0.526,-1.199c-0.32,-0.304 -0.724,-0.456 -1.211,-0.456c-0.621,0 -1.104,0.229 -1.447,0.686c-0.343,0.457 -0.515,1.097 -0.515,1.921l0,0.205c0,0.809 0.172,1.439 0.515,1.892c0.344,0.451 0.828,0.677 1.453,0.677z" fill="#818285" id="svg_29"/>
   <path d="m158.583,48.694c0,-0.609 0.115,-1.159 0.348,-1.647s0.56,-0.869 0.983,-1.141s0.904,-0.407 1.441,-0.407c0.828,0 1.499,0.296 2.014,0.889c0.514,0.592 0.771,1.376 0.771,2.354l0,0.146c0,0.614 -0.116,1.166 -0.348,1.656c-0.232,0.49 -0.56,0.869 -0.981,1.135s-0.903,0.398 -1.443,0.398c-0.825,0 -1.495,-0.296 -2.011,-0.888c-0.516,-0.593 -0.773,-1.377 -0.773,-2.354l0,-0.141l-0.001,0zm0.69,0.195c0,0.758 0.192,1.379 0.578,1.865c0.385,0.486 0.891,0.729 1.516,0.729c0.621,0 1.124,-0.243 1.51,-0.729s0.578,-1.127 0.578,-1.924l0,-0.135c0,-0.484 -0.088,-0.928 -0.265,-1.33c-0.176,-0.401 -0.424,-0.713 -0.742,-0.934s-0.683,-0.331 -1.093,-0.331c-0.613,0 -1.114,0.245 -1.501,0.735c-0.388,0.49 -0.581,1.131 -0.581,1.924l0,0.13z" fill="#818285" id="svg_30"/>
   <path d="m166.185,45.616l0.023,1.032c0.23,-0.383 0.518,-0.671 0.863,-0.862c0.345,-0.191 0.729,-0.287 1.15,-0.287c0.981,0 1.604,0.41 1.869,1.231c0.223,-0.395 0.52,-0.699 0.892,-0.912s0.782,-0.319 1.231,-0.319c1.334,0 2.016,0.743 2.042,2.228l0,4.233l-0.69,0l0,-4.181c-0.004,-0.566 -0.124,-0.986 -0.359,-1.261c-0.236,-0.273 -0.62,-0.41 -1.153,-0.41c-0.495,0.008 -0.913,0.171 -1.254,0.489c-0.342,0.319 -0.531,0.707 -0.569,1.164l0,4.198l-0.69,0l0,-4.233c-0.004,-0.543 -0.13,-0.949 -0.377,-1.217s-0.628,-0.401 -1.142,-0.401c-0.434,0 -0.806,0.126 -1.116,0.378s-0.541,0.627 -0.69,1.123l0,4.351l-0.69,0l0,-6.344l0.66,0z" fill="#818285" id="svg_31"/>
  </g>
 </g>
</svg>