<svg width="208" height="60" viewBox="0 0 416 120" xmlns="http://www.w3.org/2000/svg" xmlns:svg="http://www.w3.org/2000/svg">
<g class="layer">
  <title>Logo</title>
  <g id="svg_1">
    <path d="m84.71039,41.17955c-2.50099,-6.87454 -6.83995,-12.64522 -11.44833,-18.23456c-4.12133,-4.99832 -8.59113,-9.91413 -12.66992,-14.9928c-1.32966,-1.65558 -3.85407,-1.65558 -5.18372,0c-4.07879,5.07867 -8.54881,9.99448 -12.66992,14.9928c-4.60837,5.58913 -8.94755,11.36002 -11.44833,18.23456c-2.41097,6.62747 -3.20674,13.81031 -1.15628,20.64402c3.2293,10.76298 11.11382,18.85481 23.14199,18.85481l9.44921,0c12.0284,0 19.9127,-8.09205 23.14199,-18.85481c2.04981,-6.83371 1.25425,-14.01655 -1.15672,-20.64402l0.00002,0z" fill="#fe76a8" id="svg_4"/>
    <path d="m85.86624,61.8227c-2.47112,8.23772 -7.66645,14.90858 -15.35975,17.58638c5.19103,-3.35992 8.81306,-8.86419 10.7531,-15.33075c2.05111,-6.83544 1.25554,-14.01762 -1.15542,-20.64402c-2.49991,-6.87539 -6.83995,-12.6465 -11.44875,-18.23521c-4.12004,-4.99767 -8.59092,-9.91327 -12.66863,-14.99301c-0.42002,-0.51992 -0.95777,-0.87785 -1.53763,-1.07121c0.32226,-0.39338 0.64217,-0.78675 0.95992,-1.18228c1.3288,-1.65558 3.8532,-1.65558 5.18201,0c4.07986,5.07781 8.54881,9.9932 12.67099,14.99301c4.60881,5.58871 8.94648,11.35981 11.44875,18.23306c2.41097,6.62876 3.20653,13.81073 1.15542,20.64402l0,0.00001z" fill="#fe5694" id="svg_5"/>
  </g>
  <g fill="#b0e7c9" id="svg_6">
    <path d="m16.45916,99.75275c0.38993,-1.5821 1.42205,-5.15365 3.5651,-9.0612c4.5929,-8.37521 13.52241,-13.50931 23.07131,-13.26524c4.45519,0.11387 8.06111,1.01857 9.62453,1.47768c0.4821,0.14158 0.76677,0.63658 0.64646,1.12448c-0.38993,1.5821 -1.42205,5.15365 -3.5651,9.0612c-4.5929,8.37521 -13.52241,13.50931 -23.07131,13.26524c-4.45519,-0.11387 -8.06111,-1.01857 -9.62453,-1.47768c-0.4821,-0.14158 -0.76656,-0.63658 -0.64646,-1.12448z" id="svg_7"/>
    <path d="m99.54098,99.75275c-0.38993,-1.5821 -1.42205,-5.15365 -3.5651,-9.0612c-4.5929,-8.37521 -13.52241,-13.50931 -23.07131,-13.26524c-4.45519,0.11387 -8.06111,1.01857 -9.62453,1.47768c-0.4821,0.14158 -0.76677,0.63658 -0.64646,1.12448c0.38993,1.5821 1.42205,5.15365 3.5651,9.0612c4.5929,8.37521 13.52241,13.50931 23.07131,13.26524c4.45519,-0.11387 8.06111,-1.01857 9.62453,-1.47768c0.4821,-0.14158 0.76656,-0.63658 0.64646,-1.12448z" id="svg_8"/>
  </g>
  <g fill="#91deb6" id="svg_9">
    <path d="m53.36677,80.02783c-0.39101,1.5821 -1.42226,5.15322 -3.56445,9.06206c-4.59334,8.37543 -13.52414,13.50867 -23.07304,13.26417c-4.4554,-0.11322 -8.05982,-1.01771 -9.6243,-1.47768c-0.4821,-0.14007 -0.76656,-0.63551 -0.64668,-1.12448c0.14437,-0.58222 0.37339,-1.43107 0.71327,-2.46661c1.88224,0.44 4.65328,0.93327 7.86431,1.01556c9.54869,0.24449 18.4797,-4.88874 23.07304,-13.26417c1.35565,-2.47112 2.26445,-4.80883 2.84882,-6.59331c0.72896,0.16887 1.3245,0.33107 1.76214,0.45998c0.48254,0.14222 0.76699,0.63766 0.64689,1.12448z" id="svg_10"/>
    <path d="m98.89495,100.87638c-0.66666,0.19551 -1.70219,0.47115 -3.01768,0.73326c-0.54892,-1.8556 -1.53763,-4.64876 -3.17989,-7.6398c-4.59098,-8.37543 -13.52199,-13.51082 -23.07067,-13.26654c-2.5577,0.06661 -4.83547,0.39338 -6.60663,0.74658c-0.16887,-0.5689 -0.29563,-1.05101 -0.38672,-1.42226c-0.11988,-0.48661 0.16457,-0.98226 0.64668,-1.12448c1.56448,-0.45783 5.1689,-1.3621 9.6243,-1.47768c9.54869,-0.24449 18.4797,4.8911 23.07067,13.26654c2.14434,3.9067 3.17559,7.4776 3.5666,9.05991c0.11988,0.48876 -0.16457,0.98441 -0.64668,1.12448l0.00001,0z" id="svg_11"/>
  </g>
  <g>
    <path d="m57.3506,113.56585c-1.17712,-1.12663 -3.75867,-3.80185 -6.0779,-7.60737c-4.97082,-8.15672 -4.97039,-18.45692 0.00129,-26.613c2.31966,-3.80529 4.90142,-6.4803 6.07876,-7.60693c0.36308,-0.3474 0.93392,-0.3474 1.297,0c1.17712,1.12663 3.75867,3.80185 6.0779,7.60737c4.97082,8.15672 4.97039,18.45692 -0.00129,26.613c-2.31966,3.80529 -4.90142,6.4803 -6.07876,7.60693c-0.36308,0.3474 -0.93413,0.3474 -1.297,0z" fill="#91deb6" id="svg_12"/>
    <path d="m64.72658,105.95849c-2.31987,3.80659 -4.90206,6.47987 -6.07983,7.60651c-0.36222,0.3489 -0.93327,0.3489 -1.2955,0c-0.55773,-0.53324 -1.43107,-1.41324 -2.43997,-2.59767c1.33546,-1.38445 3.35541,-3.70217 5.20886,-6.74219c4.97103,-8.15543 4.97318,-18.45521 0.00215,-26.61279c-1.21988,-2.00212 -2.51559,-3.69099 -3.63987,-5.00648c0.34009,-0.3489 0.63336,-0.64002 0.87119,-0.86668c0.36222,-0.3489 0.93327,-0.3489 1.2955,0c1.17777,1.12663 3.75996,3.80207 6.07768,7.60651c4.97082,8.15736 4.97082,18.45735 -0.00021,26.61279z" fill="#6ed5a1" id="svg_13"/>
    <path d="m108.26832,72.17662c2.29667,-4.92312 3.0484,-10.2321 3.56338,-15.58705c0.44,-4.57379 0.67332,-9.27519 1.1507,-13.87798c0.19701,-1.89943 -1.40184,-3.49849 -3.30148,-3.30148c-4.60279,0.47759 -9.30398,0.71091 -13.87798,1.15091c-5.35495,0.51498 -10.66394,1.26693 -15.58705,3.56338c-4.74631,2.21417 -8.93596,5.56808 -11.44768,10.23339c-3.9559,7.34762 -4.06504,15.73701 2.25134,22.05339l4.96201,4.96201c6.31637,6.31637 14.70577,6.20724 22.05339,2.25134c4.66531,-2.51195 8.01922,-6.70158 10.23339,-11.44789l-0.00001,-0.00001z" fill="#ffc8dd" id="svg_14"/>
    <path d="m112.98348,42.71202c-0.47781,4.60215 -0.71112,9.30419 -1.15112,13.87755c-0.51563,5.35539 -1.26672,10.66415 -3.56445,15.58641c-2.21331,4.74652 -5.56872,8.93767 -10.23317,11.44875c-6.39759,3.44436 -13.58858,3.9733 -19.51072,-0.12224c4.84427,1.45556 10.12425,0.51777 14.95306,-2.08226c4.66445,-2.51108 8.01772,-6.70202 10.23317,-11.44639c2.2956,-4.92441 3.04884,-10.23317 3.56209,-15.58855c0.44,-4.57314 0.67332,-9.2754 1.15112,-13.87755c0.03566,-0.33558 0.01332,-0.66 -0.0578,-0.96894c0.44,-0.03996 0.87785,-0.08229 1.31548,-0.1289c1.90029,-0.19572 3.49807,1.40207 3.30235,3.30213l-0.00001,0z" fill="#fea3c6" id="svg_15"/>
    <path d="m7.73181,72.17662c-2.29667,-4.92312 -3.0484,-10.2321 -3.56338,-15.58705c-0.44,-4.57379 -0.67332,-9.27519 -1.1507,-13.87798c-0.19701,-1.89943 1.40184,-3.49849 3.30148,-3.30148c4.60279,0.47759 9.30398,0.71091 13.87798,1.15091c5.35495,0.51498 10.66394,1.26693 15.58705,3.56338c4.74631,2.21417 8.93596,5.56808 11.44768,10.23339c3.9559,7.34762 4.06504,15.73701 -2.25134,22.05339l-4.96201,4.96201c-6.31637,6.31637 -14.70577,6.20724 -22.05339,2.25134c-4.66531,-2.51195 -8.01922,-6.70158 -10.23339,-11.44789l0.00001,-0.00001z" fill="#ffc8dd" id="svg_16"/>
    <path d="m47.60469,73.1114c1.18894,-4.66445 0.22215,-9.68876 -2.26207,-14.30423c-2.51108,-4.66445 -6.70202,-8.01987 -11.44639,-10.23317c-4.92441,-2.2956 -10.23317,-3.04884 -15.58855,-3.56445c-4.57314,-0.44 -9.2754,-0.67332 -13.87755,-1.14876c-0.45332,-0.04662 -0.8888,0.00666 -1.2867,0.14673c-0.03996,-0.43334 -0.08229,-0.86431 -0.12675,-1.2955c-0.19551,-1.89985 1.40228,-3.49764 3.30213,-3.30213c4.60215,0.47781 9.30441,0.71112 13.87755,1.15112c5.35539,0.51563 10.66436,1.26672 15.58855,3.56445c4.74437,2.21331 8.93531,5.56658 11.44639,10.23317c3.29998,6.1286 3.92217,12.98166 0.37339,18.75276z" fill="#fea3c6" id="svg_17"/>
    <path d="m14.04132,51.92984c-0.03351,-5.43252 1.49767,-10.57091 3.26346,-15.65258c1.50819,-4.34047 3.25723,-8.71059 4.7433,-13.09295c0.61316,-1.80854 2.73344,-2.59466 4.37764,-1.62335c3.98383,2.35403 8.1593,4.52738 12.1326,6.83501c4.65199,2.70186 9.16325,5.59988 12.67959,9.74075c3.39,3.9922 5.7986,8.78814 6.13527,14.07585c0.53023,8.32795 -2.87029,15.99805 -11.24551,19.10381l-6.57934,2.43975c-8.37543,3.10555 -15.95443,-0.49306 -20.98197,-7.15361c-3.19192,-4.22875 -4.49257,-9.43546 -4.52502,-14.67268l-0.00001,-0.00001z" fill="#fe93bb" id="svg_18"/>
    <path d="m54.0113,65.43829c0.87785,-2.69778 1.19775,-5.66218 1.00224,-8.71316c-0.34675,-5.44218 -2.82433,-10.37755 -6.31315,-14.48642c-3.61989,-4.26205 -8.26435,-7.24665 -13.05083,-10.02649c-4.09103,-2.37552 -8.38875,-4.61332 -12.48859,-7.03546c-0.52443,-0.31109 -1.09785,-0.44666 -1.65558,-0.42883c0.18434,-0.51992 0.36437,-1.0422 0.54226,-1.56448c0.61338,-1.80661 2.73559,-2.59337 4.37764,-1.62228c3.98447,2.35338 8.15994,4.52652 12.13324,6.83544c4.65328,2.7023 9.16433,5.59988 12.6798,9.73989c3.39108,3.99328 5.79775,8.78879 6.13548,14.07521c0.31303,4.90206 -0.7382,9.57769 -3.3625,13.22657z" fill="#fe76a8" id="svg_19"/>
    <path d="m101.95883,51.92984c0.03351,-5.43252 -1.49767,-10.57091 -3.26346,-15.65258c-1.50819,-4.34047 -3.25723,-8.71059 -4.7433,-13.09295c-0.61316,-1.80854 -2.73344,-2.59466 -4.37764,-1.62335c-3.98383,2.35403 -8.1593,4.52738 -12.1326,6.83501c-4.65199,2.70186 -9.16325,5.59988 -12.67959,9.74075c-3.39,3.9922 -5.7986,8.78814 -6.13527,14.07585c-0.53023,8.32795 2.87029,15.99805 11.24551,19.10381l6.57934,2.43975c8.37543,3.10555 15.95443,-0.49306 20.98197,-7.15361c3.19192,-4.22875 4.49257,-9.43546 4.52502,-14.67268l0.00001,-0.00001z" fill="#fe93bb" id="svg_20"/>
    <path d="m101.95925,51.92962c-0.0333,5.23766 -1.33331,10.44436 -4.52652,14.67311c-4.96652,6.57999 -12.42199,10.17087 -20.67733,7.26211c6.15546,0.22666 11.59527,-3.09781 15.49983,-8.26865c3.19106,-4.22875 4.49107,-9.43546 4.52437,-14.67311c0.0333,-5.43315 -1.49767,-10.57091 -3.26432,-15.65301c-1.50669,-4.33982 -3.25552,-8.71101 -4.74222,-13.09316c-0.01332,-0.04211 -0.02879,-0.08229 -0.04447,-0.12224c0.28231,-0.1622 0.56439,-0.32678 0.8467,-0.49327c1.64226,-0.97109 3.76447,-0.18434 4.37764,1.62228c1.48434,4.3843 3.23338,8.75312 4.74222,13.09316c1.76644,5.08189 3.29741,10.21942 3.2641,15.6528l0,-0.00001z" fill="#fe76a8" id="svg_21"/>
    <path d="m77.83156,55.78133c-1.85688,-5.10402 -5.07845,-9.38862 -8.50003,-13.53853c-2.58005,-3.12897 -5.344,-6.21454 -7.96272,-9.36564c-1.75398,-2.1104 -4.98327,-2.1104 -6.73725,0c-2.61893,3.1511 -5.38289,6.23667 -7.96272,9.36564c-3.42159,4.14968 -6.64315,8.43451 -8.50003,13.53853c-1.79007,4.92075 -2.38088,10.2538 -0.85851,15.32752c2.39765,7.99108 8.25168,13.99916 17.18226,13.99916l7.01569,0c8.93058,0 14.78462,-6.00808 17.18226,-13.99916c1.52195,-5.07394 0.93112,-10.40698 -0.85894,-15.32752l-0.00001,0z" fill="#ffc8dd" id="svg_22"/>
    <path d="m78.69093,71.10928c-2.2623,7.5399 -7.60436,13.31316 -15.702,13.93986c5.14226,-2.2045 8.64442,-6.91987 10.36659,-12.65531c1.52216,-5.07329 0.93112,-10.40656 -0.86002,-15.32645c-1.8556,-5.10444 -5.07759,-9.38862 -8.49982,-13.53982c-2.58005,-3.12875 -5.34443,-6.21325 -7.96207,-9.36435c-0.42668,-0.51326 -0.9423,-0.90449 -1.50218,-1.1666c0.0333,-0.03996 0.06661,-0.07992 0.10012,-0.11988c1.75333,-2.11104 4.98435,-2.11104 6.73768,0c2.61765,3.1511 5.38224,6.23752 7.96207,9.3665c3.42223,4.14883 6.64444,8.43322 8.49982,13.53746c1.79071,4.92205 2.38196,10.2553 0.8598,15.3286l0,-0.00001z" fill="#fea3c6" id="svg_23"/>
  </g>
  <g>
    <path d="m133.92346,112.59925c5.66783,0 10.07881,-1.15839 13.23294,-3.47435c3.15413,-2.32158 4.73119,-5.39805 4.73119,-9.23023c0,-2.75385 -0.68606,-5.18191 -2.05739,-7.28493c-1.37693,-2.10303 -3.09008,-3.84261 -5.13948,-5.21953c-2.05499,-1.37693 -4.1468,-2.73785 -6.27625,-4.08276c-2.12944,-1.35051 -4.11239,-3.05006 -5.94802,-5.09945c-1.83564,-2.05499 -3.05006,-4.37656 -3.64246,-6.9647c-4.90972,-1.45698 -8.14711,-4.50464 -9.71056,-9.14218c-0.5924,-1.7828 -0.88861,-3.64486 -0.88861,-5.58777c0,-1.94291 0.2962,-3.96508 0.88861,-6.06811c1.23843,-4.15721 3.2606,-7.28733 6.06811,-9.39036l0.88861,1.29688c-2.53532,1.83564 -4.36855,4.69678 -5.49972,8.58181c-0.53876,1.93731 -0.80855,3.79696 -0.80855,5.57977c0,1.7828 0.26978,3.48235 0.80855,5.09945c1.29127,3.93866 3.96268,6.58285 8.01341,7.93336c-0.10647,-0.5924 -0.16011,-1.51063 -0.16011,-2.75385c0,-7.06638 2.56174,-12.78464 7.6852,-17.1556c5.12345,-4.37096 11.38129,-6.55644 18.77269,-6.55644c4.85689,0 8.74191,1.32089 11.65588,3.96268c2.48168,2.32158 3.72252,5.1691 3.72252,8.54178c0,3.37269 -1.13117,6.28665 -3.3943,8.74191c-2.26793,2.45526 -5.31799,3.68248 -9.15019,3.68248c-2.10303,0 -3.82899,-0.40587 -5.1795,-1.21681c-2.74826,2.10303 -6.01207,3.61284 -9.79062,4.53106c1.07833,1.0247 3.60003,2.91397 7.56511,5.66783c3.96508,2.75385 6.93269,5.38525 8.90202,7.89334c1.96934,2.50809 2.954,5.43568 2.954,8.78194c0,6.14815 -2.38561,11.13793 -7.15684,14.97012c-4.77682,3.83219 -10.82092,5.74789 -18.13226,5.74789c-7.31133,0 -12.82707,-1.61949 -16.54717,-4.85928c-3.23979,-2.74826 -4.85928,-6.10813 -4.85928,-10.07881c0,-3.96508 1.28087,-7.36258 3.84261,-10.1909c2.56174,-2.83392 5.75829,-4.25087 9.59049,-4.25087c3.83219,0 6.6661,0.84857 8.50175,2.54572c1.83083,1.70274 2.74586,3.76814 2.74586,6.19619c0,2.42804 -0.7421,4.58711 -2.2255,6.47638c-1.48341,1.88367 -3.41031,2.82591 -5.7799,2.82591c-2.3752,0 -4.26449,-0.75491 -5.66783,-2.26553c-1.29688,-1.29127 -2.02537,-2.90837 -2.18548,-4.85129c-0.05363,-0.53876 -0.05363,-0.86458 0,-0.97666l1.53704,0.08005c-0.05363,1.88928 0.53876,3.45594 1.7772,4.69918c1.0247,1.13117 2.52411,1.69714 4.49904,1.69714c1.96934,0 3.5464,-0.76852 4.73119,-2.30556c1.1848,-1.53704 1.7772,-3.31663 1.7772,-5.33961c0,-2.02297 -0.69887,-3.65607 -2.09742,-4.89932c-1.56906,-1.56346 -4.08036,-2.34559 -7.53309,-2.34559c-3.45274,0 -6.31067,1.25444 -8.57379,3.76254c-2.26793,2.50809 -3.4023,5.52934 -3.4023,9.06213c0,3.53839 1.45698,6.54843 4.37096,9.0301c1.72356,1.51063 3.49037,2.58814 5.29958,3.23418c1.80922,0.64604 4.22446,0.96865 7.24489,0.96865l0.00001,0l-0.00002,0.00001l0.00002,-0.00002l-0.00005,0.00001zm13.7613,-55.67763c0,-2.3752 0.60601,-4.34454 1.81723,-5.90799c1.21681,-1.56906 2.87635,-2.35359 4.97936,-2.35359c3.61284,0 5.41966,1.98535 5.41966,5.95602c0,3.96508 -1.96934,7.70121 -5.90799,11.20757c1.19041,0.53876 2.43124,0.80855 3.72252,0.80855c3.34626,0 6.01767,-1.09434 8.01341,-3.28222c1.99575,-2.18307 2.99403,-4.74481 2.99403,-7.6852c0,-2.94039 -1.07833,-5.43568 -3.23418,-7.48507c-2.64178,-2.3752 -6.12174,-3.56241 -10.43906,-3.56241c-4.31732,0 -7.98701,1.05111 -11.00744,3.15413c-4.69678,3.34626 -7.04476,7.66358 -7.04476,12.95276c0,4.37096 1.45698,7.55471 4.37096,9.55046c3.61284,-0.81095 6.9591,-2.26793 10.03878,-4.37096c-2.48168,-2.21509 -3.72252,-5.20912 -3.72252,-8.98207l0.00001,-0.00001l0,-0.00001l0,0.00003zm6.71653,-6.8046c-1.6171,0 -2.87154,0.62201 -3.76254,1.86527c-0.891,1.23843 -1.3369,2.88435 -1.3369,4.93934c0,3.50638 1.10475,6.17777 3.31424,8.01341c1.6227,-1.13678 2.97241,-2.67621 4.05074,-4.61913c1.07833,-1.94291 1.6171,-3.85861 1.6171,-5.74789c0,-2.96761 -1.29448,-4.45101 -3.88262,-4.45101l-0.00001,0l0,0.00001l-0.00001,-0.00001zm31.72064,44.59816c-1.6171,1.94291 -3.64006,2.91397 -6.06811,2.91397c-2.42804,0 -4.33093,-0.62201 -5.70785,-1.86527c-1.37693,-1.23843 -2.0654,-2.85553 -2.0654,-4.85129c0,-0.70448 0.43229,-3.64486 1.29688,-8.82196l2.66581,-14.4898l-3.3943,0l0.16011,-1.45698l3.48235,0c3.9923,0 6.93269,-0.16011 8.82196,-0.48033l1.12876,-0.24817l-5.57977,30.59669c1.6171,-0.16571 2.9644,-0.92063 4.04273,-2.26553l1.21681,0.96865l0,-0.00001l0.00001,0l0,0.00002zm-7.12481,-37.06506c-1.13117,-1.13678 -1.69714,-2.5137 -1.69714,-4.13079c0,-1.6171 0.56599,-3.00762 1.69714,-4.17082c1.13117,-1.15839 2.50809,-1.73718 4.13079,-1.73718c1.6171,0 3.00444,0.57879 4.16281,1.73718c1.16318,1.16318 1.74517,2.55373 1.74517,4.17082c0,1.6171 -0.58199,2.99403 -1.74517,4.13079c-1.15839,1.13117 -2.54572,1.69714 -4.16281,1.69714c-1.6227,0 -2.99964,-0.56599 -4.13079,-1.69714zm43.0563,38.36194c1.29688,0 2.64659,-0.75491 4.05074,-2.26553l1.20882,0.96865c-0.37945,0.75811 -1.21442,1.43296 -2.50569,2.02537c-1.29688,0.5924 -2.72744,0.88861 -4.2909,0.88861c-4.91052,0 -7.36498,-2.2119 -7.36498,-6.63648c0,-1.88928 0.48514,-5.26196 1.45698,-10.11884c0.97106,-4.85689 1.45698,-8.03983 1.45698,-9.55046c0,-2.31597 -1.10795,-3.47435 -3.32224,-3.47435c-1.7772,0 -3.49037,1.15839 -5.13948,3.47435c-1.64432,2.32158 -3.00523,5.50533 -4.08276,9.55046l-2.75385,15.13824c1.67552,-0.16571 3.05246,-0.92063 4.13079,-2.26553l1.20882,0.96865c-1.6171,1.94291 -3.64006,2.91397 -6.06811,2.91397c-2.42884,0 -4.33093,-0.62201 -5.70785,-1.86527c-1.37212,-1.23843 -2.05739,-2.85553 -2.05739,-4.85129c0,-0.75811 0.42909,-3.72492 1.28887,-8.90202l2.67381,-14.97812c-1.6171,0.16571 -2.96761,0.92063 -4.05074,2.26553l-1.20882,-0.96865c1.6171,-1.94291 3.65287,-2.91397 6.10813,-2.91397c2.45447,0 4.35734,0.62201 5.70785,1.86527c1.34971,1.23843 2.02537,2.99162 2.02537,5.25955l0,0.48832c2.20949,-5.07543 5.66223,-7.61314 10.359,-7.61314c3.18055,0 5.66223,0.90462 7.44503,2.71384c1.7772,1.80922 2.66581,4.30451 2.66581,7.48507c0,1.67073 -0.51235,4.89372 -1.53704,9.67053c-1.0247,4.77682 -1.59067,8.35204 -1.69714,10.72725l0,-0.00001l0.00001,-0.00001l0.00001,-0.00001l-0.00002,0.00001zm39.41384,0c1.29127,0 2.63858,-0.75491 4.04273,-2.26553l1.21681,0.96865c-0.37945,0.75811 -1.21681,1.43296 -2.5137,2.02537c-1.29207,0.5924 -2.71944,0.88861 -4.28289,0.88861c-4.91052,0 -7.36498,-2.2119 -7.36498,-6.63648c0,-1.88928 0.48514,-5.26196 1.45698,-10.11884c0.97106,-4.85689 1.45698,-8.03983 1.45698,-9.55046c0,-2.31597 -1.10795,-3.47435 -3.32224,-3.47435c-1.83644,0 -3.60243,1.24085 -5.29958,3.72252c-1.70274,2.48168 -3.09329,5.85196 -4.17082,10.11083l-2.66581,15.21828l-9.71856,0l8.99007,-50.82636c-1.6227,0.16011 -2.97321,0.91502 -4.05074,2.26553l-1.21681,-0.96865c1.62189,-1.94291 3.66087,-2.91397 6.11613,-2.91397c2.45447,0 4.35734,0.61882 5.70785,1.85726c1.3449,1.24323 2.01737,2.99643 2.01737,5.25955c0,0.43229 -0.05363,1.13436 -0.16011,2.10543l-3.4023,19.18097c2.21429,-4.96335 5.64061,-7.44503 10.27894,-7.44503c3.18615,0 5.67023,0.90462 7.45304,2.71384c1.7772,1.80922 2.66581,4.30451 2.66581,7.48507c0,1.67073 -0.51235,4.89372 -1.53704,9.67053c-1.0247,4.77682 -1.59067,8.35204 -1.69714,10.72725l0,-0.00002l0.00002,-0.00001l0.00001,-0.00001l-0.00001,0.00002zm38.88468,-13.84135c-1.48421,-1.13117 -2.7939,-2.85792 -3.93065,-5.1795c-1.13197,-2.32158 -1.69714,-4.93934 -1.69714,-7.85331c0,-2.91397 0.45871,-5.6118 1.37693,-8.09346c0.91742,-2.48168 2.27834,-4.73359 4.08276,-6.75657c1.80922,-2.02297 4.22365,-3.64246 7.24489,-4.85928c3.02045,-1.21121 6.23061,-1.81723 9.63051,-1.81723c3.3991,0 6.47638,0.25617 9.23023,0.76852c2.74826,0.51235 4.90732,1.05111 6.47638,1.6171c1.56346,0.56599 2.9508,1.10475 4.16281,1.6171c1.21681,0.51795 2.20149,0.92302 2.954,1.21681c0.75731,0.2986 1.21681,0.47472 1.37693,0.52835c0.16492,0.05363 0.59721,0.21375 1.29688,0.48033c0.69887,0.27218 1.17119,0.4347 1.41696,0.48832c0.24016,0.05363 0.67246,0.18972 1.29688,0.40827c0.61882,0.21375 1.10475,0.34663 1.45698,0.40026c0.34663,0.05363 0.81895,0.1497 1.41696,0.28819c0.5924,0.1337 1.10475,0.21375 1.53704,0.24016c0.43229,0.02641 0.94464,0.06644 1.53704,0.12008c0.5924,0.05363 1.15757,0.08005 1.69714,0.08005c2.64178,0 4.94734,-0.4459 6.91667,-1.3369c1.96934,-0.88619 3.3991,-1.87087 4.2909,-2.954c0.891,-1.07833 1.60588,-2.31917 2.14545,-3.72252c0.65085,-1.72356 0.97666,-3.28782 0.97666,-4.69117l1.7772,0c0,1.29688 -0.33623,2.87394 -1.00869,4.73119c-0.67807,1.86286 -1.51622,3.42871 -2.5137,4.69918c-0.99827,1.26485 -2.60176,2.40963 -4.81126,3.43432c-2.21509,1.03031 -4.84648,1.54504 -7.89334,1.54504c-3.04767,0 -6.11132,-0.48593 -9.19021,-1.45698c-3.66648,5.1771 -7.52269,15.61615 -11.56782,31.31717c-1.99656,7.87732 -4.87049,13.61161 -8.62182,17.20363c-3.75214,3.58642 -9.1742,5.37965 -16.26699,5.37965c-7.0984,0 -12.40038,-2.15906 -15.90676,-6.47638c-3.07407,-3.83219 -4.61111,-8.2832 -4.61111,-13.35303c0,-0.64604 0.02641,-1.29448 0.08005,-1.94532l1.86527,0l0,1.13678c0,3.72011 0.99748,7.36258 2.99403,10.92739c0.85897,1.51063 1.89728,2.81791 3.1141,3.92265c1.21121,1.10475 2.84432,2.03577 4.89932,2.7939c2.04938,0.7525 4.34133,1.12876 6.87664,1.12876c4.20524,0 7.5355,-1.69955 9.99076,-5.09945c2.45447,-3.3999 4.82967,-9.96673 7.12481,-19.70132c2.29435,-9.74018 4.64314,-16.70168 7.04476,-20.88612c2.40162,-4.17882 5.89438,-6.59406 10.47908,-7.24489c-1.40415,-0.53876 -2.88755,-1.14477 -4.45101,-1.81723c-1.56426,-0.67246 -3.06127,-1.26726 -4.49103,-1.7852c-1.43056,-0.51235 -3.48235,-1.0247 -6.15615,-1.53704c-2.669,-0.51235 -5.64943,-0.76852 -8.94205,-0.76852c-3.28782,0 -6.34829,0.5948 -9.18221,1.7852c-2.83392,1.1848 -5.033,2.74826 -6.59646,4.69117c-3.13331,3.77855 -4.69918,8.14951 -4.69918,13.11286c0,2.8075 0.51475,5.27556 1.54504,7.40501c1.0247,2.12944 2.26553,3.70651 3.72252,4.73119c2.96681,2.00135 5.66462,3.13571 8.09346,3.4023l1.53704,0.16011l-0.48832,1.7852c-1.35051,0 -3.09008,-0.41869 -5.21953,-1.25685c-2.12944,-0.83817 -3.93626,-1.82283 -5.41966,-2.954l0,-0.00001l0.00002,0l0.00002,0.00001l-0.00002,0.00002zm83.63333,15.45845c-4.74481,0 -7.33295,-2.07581 -7.76525,-6.22822c-2.3752,4.1524 -5.36923,6.22822 -8.98207,6.22822c-3.61844,0 -6.49239,-1.09113 -8.62182,-3.27422c-2.13505,-2.18788 -3.20216,-5.25155 -3.20216,-9.19021c0,-6.14815 1.51302,-10.97782 4.53907,-14.4898c3.02045,-3.50638 6.93269,-5.25955 11.73593,-5.25955c3.93866,0 6.55403,1.86286 7.8453,5.58777c0.27218,-1.6171 0.56838,-3.2366 0.88861,-4.85928c3.9971,0 6.96711,-0.16011 8.91003,-0.48033l1.04871,-0.24817l-5.58777,30.59669c1.6227,-0.16571 2.97241,-0.92063 4.05074,-2.26553l1.21681,0.96865c-1.6227,1.94291 -3.64807,2.91397 -6.07611,2.91397l-0.00002,0l-0.00001,-0.00001l0,0.00001zm-19.42114,-8.33364c0,2.42804 0.30981,4.11478 0.92863,5.05942c0.61882,0.93904 1.57706,1.40895 2.87394,1.40895c1.29688,0 2.61777,-0.69887 3.96268,-2.09742c1.7828,-1.83564 3.21256,-4.15721 4.2909,-6.9647c0.16571,-0.69887 0.47793,-2.38561 0.93663,-5.05942c0.45871,-2.66821 0.84857,-4.86729 1.16879,-6.59646c-0.16011,-2.04938 -0.72609,-3.82899 -1.69714,-5.33961c-0.97106,-1.51063 -2.18548,-2.26553 -3.64246,-2.26553c-2.64178,0 -4.77363,2.36159 -6.39632,7.08478c-1.6171,4.71759 -2.42564,9.64092 -2.42564,14.76998l-0.00001,0.00001l0.00001,-0.00001l-0.00001,0zm4.85928,-38.04172l2.09742,-0.80855l4.2909,8.58181l-2.10543,0.80855l-4.28289,-8.58181l0.00001,0zm40.13753,43.46138c-1.6171,1.94291 -3.64006,2.91397 -6.06811,2.91397c-2.42884,0 -4.33093,-0.62201 -5.70785,-1.86527c-1.37693,-1.23843 -2.0654,-2.85553 -2.0654,-4.85129c0,-0.70448 0.43229,-3.64486 1.29688,-8.82196l2.66581,-14.4898l-3.3943,0l0.16011,-1.45698l3.48235,0c3.99149,0 6.93269,-0.16011 8.82196,-0.48033l1.12876,-0.24817l-5.57977,30.59669c1.6171,-0.16571 2.9644,-0.92063 4.04273,-2.26553l1.21681,0.96865l0,-0.00001l0.00001,0l0,0.00002zm-7.12481,-37.06506c-1.13197,-1.13678 -1.69714,-2.5137 -1.69714,-4.13079c0,-1.6171 0.56518,-3.00762 1.69714,-4.17082c1.13117,-1.15839 2.50809,-1.73718 4.13079,-1.73718c1.6171,0 3.00444,0.57879 4.16281,1.73718c1.16318,1.16318 1.74517,2.55373 1.74517,4.17082c0,1.6171 -0.58199,2.99403 -1.74517,4.13079c-1.15839,1.13117 -2.54572,1.69714 -4.16281,1.69714c-1.6227,0 -2.99964,-0.56599 -4.13079,-1.69714z" fill="#2e7d32" id="svg_2" stroke="#ffffff" stroke-width="0"/>
    <path d="m134.1678,8.44067l0,3.48737l-6.47699,0l0,17.36356l-4.35338,0l0,-17.36356l-6.38142,0l0,-3.48737l17.21179,0zm14.26636,20.85094l-3.96052,-7.63452l-3.47209,0l0,7.63452l-4.35338,0l0,-20.85094l7.84671,0c2.49842,0 4.42771,0.55191 5.78681,1.65467c1.35167,1.09648 2.02804,2.64642 2.02804,4.64983c0,1.42427 -0.31111,2.61082 -0.93438,3.56068c-0.62328,0.94986 -1.57147,1.70389 -2.84563,2.26208l4.57636,8.52469l0,0.19898l-4.67192,0zm-7.43261,-17.36356l0,6.25214l3.51456,0c1.09047,0 1.93566,-0.27543 2.5377,-0.82734c0.60204,-0.54457 0.90253,-1.2986 0.90253,-2.26208c0,-0.98442 -0.2835,-1.7594 -0.84944,-2.32492c-0.56594,-0.55819 -1.43662,-0.83781 -2.61203,-0.83781l-3.49332,0zm28.01349,17.36356l-1.46529,-4.29376l-7.64497,0l-1.44405,4.29376l-4.62945,0l7.86794,-20.85094l4.03484,0l7.91042,20.85094l-4.62945,0zm-5.29839,-15.58322l-2.63327,7.81256l5.28777,0l-2.6545,-7.81256zm29.07529,-5.26772l0,20.85094l-4.35338,0l-8.47317,-13.7191l0,13.7191l-4.35338,0l0,-20.85094l4.35338,0l8.49441,13.75052l0,-13.75052l4.33215,0zm20.5278,9.8966l0,8.31524c-0.78573,0.92892 -1.89425,1.64734 -3.32344,2.15735c-1.43768,0.51002 -3.02613,0.7645 -4.76749,0.7645c-1.8263,0 -3.42962,-0.39063 -4.80996,-1.17293c-1.38034,-0.78859 -2.44639,-1.93429 -3.19602,-3.43501c-0.75069,-1.50072 -1.13294,-3.26012 -1.14674,-5.27819l0,-1.42427c0,-2.0809 0.35358,-3.88219 1.0618,-5.40386c0.70716,-1.52167 1.73392,-2.68413 3.07922,-3.48737c1.33787,-0.80953 2.90933,-1.21482 4.7144,-1.21482c2.50585,0 4.46275,0.58961 5.87176,1.76987c1.41538,1.18026 2.2542,2.89358 2.51647,5.14204l-4.23659,0c-0.19856,-1.19388 -0.62646,-2.06624 -1.28478,-2.61815c-0.66575,-0.55191 -1.5789,-0.82734 -2.73945,-0.82734c-1.48015,0 -2.60884,0.54772 -3.38714,1.6442c-0.77193,1.09648 -1.16161,2.73021 -1.16798,4.90117l0,1.33002c0,2.18563 0.41729,3.83611 1.25293,4.95354c0.84201,1.11743 2.07688,1.67562 3.70569,1.67562c1.63517,0 2.80315,-0.3456 3.50394,-1.03679l0,-3.5921l-3.97114,0l0,-3.16272l8.32452,0zm26.8264,-9.8966l0,3.48737l-6.47699,0l0,17.36356l-4.35338,0l0,-17.36356l-6.38142,0l0,-3.48737l17.21179,0zm14.26742,20.85094l-3.96052,-7.63452l-3.47209,0l0,7.63452l-4.35338,0l0,-20.85094l7.84671,0c2.49842,0 4.42771,0.55191 5.78681,1.65467c1.35167,1.09648 2.02804,2.64642 2.02804,4.64983c0,1.42427 -0.31217,2.61082 -0.93438,3.56068c-0.62328,0.94986 -1.57147,1.70389 -2.84563,2.26208l4.57636,8.52469l0,0.19898l-4.67192,0zm-7.43261,-17.36356l0,6.25214l3.51456,0c1.08941,0 1.93566,-0.27543 2.5377,-0.82734c0.60098,-0.54457 0.90253,-1.2986 0.90253,-2.26208c0,-0.98442 -0.2835,-1.7594 -0.84944,-2.32492c-0.567,-0.55819 -1.43768,-0.83781 -2.61203,-0.83781l-3.49332,0zm19.24196,-3.48737l0,20.85094l-4.35338,0l0,-20.85094l4.35338,0zm-4.21535,-1.1834l2.86686,-4.44038l4.56574,0l-4.01361,4.44038l-3.419,0zm32.83088,1.1834l0,20.85094l-4.35338,0l-8.47317,-13.7191l0,13.7191l-4.35338,0l0,-20.85094l4.35338,0l8.49441,13.75052l0,-13.75052l4.33215,0zm21.16382,9.96991l0,0.93206c0,2.05263 -0.36738,3.85077 -1.10427,5.39339c-0.73583,1.54994 -1.78701,2.74382 -3.15355,3.58163c-1.37291,0.83781 -2.94437,1.25671 -4.7144,1.25671c-1.74772,0 -3.31282,-0.41576 -4.69316,-1.24624c-1.37291,-0.83048 -2.43471,-2.01388 -3.1854,-3.55021c-0.75706,-1.54261 -1.13931,-3.31667 -1.14674,-5.32008l0,-1.03679c0,-2.05263 0.37588,-3.85706 1.12551,-5.41433c0.74326,-1.56356 1.80188,-2.76162 3.17478,-3.5921c1.36654,-0.83781 2.93057,-1.25671 4.69316,-1.25671c1.76259,0 3.33087,0.4189 4.70378,1.25671c1.36654,0.83048 2.42515,2.02854 3.17478,3.5921c0.75069,1.55727 1.12551,3.35856 1.12551,5.40386zm-4.41709,1.00537l0,-1.01584c0,-2.19191 -0.39605,-3.85392 -1.18922,-4.98496c-0.7921,-1.13837 -1.92505,-1.70703 -3.39776,-1.70703c-1.45785,0 -2.58336,0.56238 -3.37653,1.68609c-0.7921,1.11743 -1.19559,2.76162 -1.21045,4.93259l0,1.01584c0,2.12908 0.39711,3.78061 1.18922,4.95354c0.79317,1.17293 1.93672,1.7594 3.42962,1.7594c1.45891,0 2.58018,-0.56552 3.36591,-1.69656c0.78573,-1.13104 1.18285,-2.77838 1.18922,-4.94307zm-3.36591,-16.55717l4.35338,4.011l0,0.16756l-3.33405,0l-2.2404,-2.07357l-2.22978,2.07357l-3.28096,0l0,-0.21992l4.28968,-3.95864l2.44214,0zm-3.49332,29.78406c0,-0.57285 0.21661,-1.04412 0.6477,-1.4138c0.43959,-0.37701 1.00234,-0.56552 1.68826,-0.56552c0.69442,0 1.26036,0.18851 1.69888,0.56552c0.43215,0.36968 0.6477,0.84095 0.6477,1.4138c0,0.56552 -0.21555,1.03679 -0.6477,1.4138c-0.42472,0.38434 -0.99066,0.57599 -1.69888,0.57599c-0.70716,0 -1.27416,-0.19165 -1.69888,-0.57599c-0.42472,-0.37701 -0.63708,-0.84828 -0.63708,-1.4138zm19.06463,-24.20217l0,20.85094l-4.35338,0l0,-20.85094l4.35338,0zm27.34137,0l0,3.48737l-6.47699,0l0,17.36356l-4.35338,0l0,-17.36356l-6.38142,0l0,-3.48737l17.21179,0zm19.68154,0l0,20.85094l-4.35338,0l0,-8.93312l-8.49441,0l0,8.93312l-4.35338,0l0,-20.85094l4.35338,0l0,8.45138l8.49441,0l0,-8.45138l4.35338,0zm17.45813,20.85094l-1.46529,-4.29376l-7.64497,0l-1.44405,4.29376l-4.62945,0l7.86794,-20.85094l4.03484,0l7.91042,20.85094l-4.62945,0zm-5.29839,-15.58322l-2.63327,7.81256l5.28777,0l-2.6545,-7.81256zm-5.28777,-6.39876l4.14102,-3.28839l2.3572,0l4.14102,3.28839l-3.13231,0l-2.19793,-1.80129l-2.18731,1.80129l-3.12169,0zm9.56683,-1.91648l2.36782,-3.89581l3.35529,0l-3.3022,3.89581l-2.42091,0zm21.78072,3.04753l0,3.48737l-6.47699,0l0,17.36356l-4.35338,0l0,-17.36356l-6.38142,0l0,-3.48737l17.21179,0z" fill="rgb(51, 51, 51)" id="svg_3"/>
  </g>
 </g>
</svg>