<svg width="208" height="60" xmlns="http://www.w3.org/2000/svg" xmlns:svg="http://www.w3.org/2000/svg">
 <style type="text/css">.st0{display:none;enable-background:new    ;}
	.st1{display:inline;fill:#1CA766;}
	.st2{fill:#151B26;}
	.st3{fill:#FFFFFF;}</style>
 <g class="layer">
  <title>Logo Sinh Tai</title>
  <g id="svg_1">
   <path d="m75.15265,37.17711c-3.3882,-0.97257 -5.85298,-2.16634 -7.39785,-3.58833s-2.3138,-3.17402 -2.3138,-5.2596c0,-2.35945 0.94448,-4.3081 2.82993,-5.84947s4.33619,-2.31731 7.35573,-2.31731c2.0575,0 3.89028,0.39675 5.50187,1.19377s2.85803,1.89248 3.74282,3.2934s1.32719,2.92825 1.32719,4.58899l-3.97104,0c0,-1.81172 -0.57582,-3.23722 -1.72745,-4.28001c-1.15164,-1.03577 -2.77727,-1.55541 -4.8769,-1.55541c-1.94865,0 -3.46544,0.43186 -4.55739,1.28857s-1.63265,2.04696 -1.63265,3.57077c0,1.22186 0.51613,2.25763 1.5519,3.10029s2.79834,1.61861 5.2877,2.31731s4.43801,1.47466 5.84244,2.31731s2.44723,1.82577 3.12837,2.94931s1.01822,2.44723 1.01822,3.97104c0,2.42616 -0.94799,4.37481 -2.84046,5.83542s-4.42397,2.18741 -7.59097,2.18741c-2.0575,0 -3.97806,-0.38973 -5.76169,-1.17972s-3.15647,-1.87141 -4.12553,-3.24424s-1.45008,-2.92825 -1.45008,-4.66974l3.97104,0c0,1.81172 0.66711,3.23722 2.00483,4.28703s3.12486,1.56945 5.35792,1.56945c2.08558,0 3.68313,-0.42484 4.79263,-1.27452c1.1095,-0.84617 1.66777,-2.00132 1.66777,-3.46895s-0.51262,-2.60171 -1.54137,-3.40224c-1.02524,-0.80404 -2.89313,-1.59755 -5.59316,-2.38051l-0.00001,0z" fill="#818285" id="svg_2"/>
   <path d="m90.7524,22.33575c0,-0.61795 0.1896,-1.13759 0.56529,-1.56243s0.93746,-0.63902 1.6783,-0.63902s1.30262,0.21418 1.68532,0.63902s0.57582,0.94799 0.57582,1.56243s-0.19311,1.13057 -0.57582,1.54137s-0.94799,0.61795 -1.68532,0.61795s-1.2991,-0.20716 -1.6783,-0.61795s-0.56529,-0.92341 -0.56529,-1.54137zm4.11499,28.19401l-3.80602,0l0,-22.27432l3.80602,0l0,22.27432z" fill="#818285" id="svg_3"/>
   <path d="m104.5615,28.25544l0.12289,2.80185c1.69937,-2.14176 3.92188,-3.21264 6.66404,-3.21264c4.70486,0 7.07835,2.65789 7.11697,7.97016l0,14.71496l-3.80602,0l0,-14.73602c-0.01404,-1.60457 -0.3792,-2.79482 -1.09897,-3.56375s-1.83981,-1.15164 -3.36362,-1.15164c-1.2359,0 -2.31731,0.33004 -3.25126,0.98661s-1.66074,1.52732 -2.18039,2.59469l0,15.8701l-3.80602,0l0,-22.27432l3.60237,0l0.00001,-0.00001z" fill="#818285" id="svg_4"/>
   <path d="m128.00853,30.95196c1.68532,-2.07505 3.87975,-3.11082 6.58328,-3.11082c4.70486,0 7.07835,2.65789 7.11697,7.97016l0,14.71847l-3.80602,0l0,-14.73602c-0.01404,-1.60457 -0.3792,-2.79482 -1.09897,-3.56375s-1.83981,-1.15164 -3.36362,-1.15164c-1.2359,0 -2.31731,0.33004 -3.25126,0.98661s-1.66074,1.52732 -2.18039,2.59469l0,15.8701l-3.80602,0l0,-31.59977l3.80602,0l0,12.02196l0.00001,0z" fill="#818285" id="svg_5"/>
   <path d="m173.19256,23.81041l-9.62739,0l0,26.71936l-3.9289,0l0,-26.71936l-9.60633,0l0,-3.23722l23.16613,0l0,3.23722l-0.00351,0z" fill="#818285" id="svg_6"/>
   <path d="m188.46227,50.52977c-0.2212,-0.43889 -0.39675,-1.22186 -0.53368,-2.34541c-1.76959,1.8363 -3.88326,2.7562 -6.33751,2.7562c-2.19443,0 -3.99561,-0.61795 -5.40005,-1.85736s-2.11017,-2.8194 -2.11017,-4.72592c0,-2.31731 0.88128,-4.11499 2.64385,-5.39654s4.24139,-1.92758 7.43648,-1.92758l3.70419,0l0,-1.74852c0,-1.3307 -0.39675,-2.39456 -1.19377,-3.18104s-1.96972,-1.18675 -3.51811,-1.18675c-1.35879,0 -2.49638,0.34409 -3.41628,1.02875c-0.9199,0.68817 -1.37986,1.5203 -1.37986,2.49638l-3.82708,0c0,-1.11301 0.39324,-2.18741 1.18324,-3.22669s1.85736,-1.85736 3.20913,-2.46127c1.35177,-0.60742 2.83695,-0.90937 4.45556,-0.90937c2.56309,0 4.57494,0.64604 6.02854,1.92758s2.20847,3.05113 2.26465,5.30174l0,10.25237c0,2.04345 0.25982,3.66909 0.78297,4.8769l0,0.32653l-3.9921,0zm-2.48936,-25.46941l-3.26882,0.01404l-5.30876,-6.06364l4.58899,0l3.98859,6.0496zm-3.82708,22.56223c1.19377,0 2.32433,-0.30897 3.39522,-0.92693s1.84332,-1.41848 2.32433,-2.40861l0,-4.56441l-2.98442,0c-4.66272,0 -6.99408,1.36581 -6.99408,4.09392c0,1.19377 0.39675,2.12421 1.19377,2.79834s1.81874,1.00768 3.06517,1.00768l0.00001,0.00001z" fill="#818285" id="svg_7"/>
   <path d="m197.65429,22.33575c0,-0.61795 0.1896,-1.13759 0.56529,-1.56243s0.93746,-0.63902 1.6783,-0.63902s1.30262,0.21418 1.68532,0.63902s0.57582,0.94799 0.57582,1.56243s-0.19311,1.13057 -0.57582,1.54137s-0.94799,0.61795 -1.68532,0.61795s-1.2991,-0.20716 -1.6783,-0.61795s-0.56529,-0.92341 -0.56529,-1.54137zm4.11499,28.19401l-3.80602,0l0,-22.27432l3.80602,0l0,22.27432z" fill="#818285" id="svg_8"/>
  </g>
  <g id="svg_9">
   <path d="m55.43799,11.89813l-7.849,0l0,38.66122l-6.45898,0l0,-38.66122l-7.849,0l0,-5.64813l22.15236,0l0,5.64813l0.00464,0l-0.00001,0z" fill="#ef362b" id="svg_10"/>
  </g>
  <path d="m27.8946,28.34328c-4.18668,-2.31053 -6.85765,-4.04343 -8.01292,-5.19869c-1.7329,-1.7329 -2.60165,-3.7523 -2.60165,-6.06283c0,-1.58965 0.50832,-2.88816 1.52033,-3.90018c0.86876,-0.86876 2.02402,-1.29852 3.46579,-1.29852l11.00737,0l0,-5.63307l-11.91309,0l0,0.06008c-2.85582,0.13863 -5.2449,1.10444 -7.11181,2.97596c-2.0194,2.0194 -3.03142,4.69037 -3.03142,8.01292c0,3.60905 0.93808,6.35396 2.81423,8.23011c2.16728,2.16728 5.12476,4.26062 8.88168,6.28002s5.63307,4.62106 5.63307,7.80035c0,1.87615 -0.50369,3.32254 -1.51571,4.33455s-2.52772,1.51109 -4.55174,1.51109c-1.44639,0 -2.74491,-0.57764 -3.90018,-1.7329s-1.69593,-2.45378 -1.69593,-5.4852l-5.88261,0.07394c0,4.33455 1.08133,7.58316 3.24861,9.74582s5.12938,3.24861 8.88168,3.24861c3.32254,0 6.06745,-1.08133 8.23011,-3.24861s3.24861,-4.98151 3.24861,-8.4473c0,-5.05544 -2.23659,-8.80774 -6.7144,-11.26615l-0.00001,0.00001z" fill="#00a63f" id="svg_11"/>
 </g>
</svg>