<svg width="208" height="60" xmlns="http://www.w3.org/2000/svg" xmlns:svg="http://www.w3.org/2000/svg">
 <style type="text/css">.st0{display:none;enable-background:new    ;}
	.st1{display:inline;fill:#1CA766;}
	.st2{fill:#151B26;}
	.st3{fill:#FFFFFF;}</style>
 <g class="layer">
  <title>Logo Sinh Tai</title>
  <g id="svg_1">
   <path d="m69.99118,38.67677c-3.01902,-0.8666 -5.21524,-1.9303 -6.59178,-3.19735s-2.06169,-2.82818 -2.06169,-4.68652c0,-2.10237 0.84157,-3.83869 2.52158,-5.21212s3.86372,-2.06482 6.55425,-2.06482c1.83332,0 3.4664,0.35352 4.90239,1.0637s2.54662,1.68628 3.335,2.93455s1.18258,2.60919 1.18258,4.08898l-3.53836,0c0,-1.61432 -0.51308,-2.88449 -1.53923,-3.81366c-1.02616,-0.92291 -2.47466,-1.38593 -4.34552,-1.38593c-1.73633,0 -3.08785,0.3848 -4.06082,1.14817s-1.45476,1.82392 -1.45476,3.1817c0,1.08873 0.45989,2.01164 1.38281,2.76248s2.49343,1.44225 4.71156,2.06482s3.95445,1.31398 5.20585,2.06482s2.18058,1.62684 2.7875,2.62796s0.90728,2.18058 0.90728,3.53836c0,2.16181 -0.8447,3.89813 -2.53097,5.1996s-3.94194,1.94907 -6.76386,1.94907c-1.83332,0 -3.54461,-0.34727 -5.1339,-1.05118s-2.81254,-1.6675 -3.67601,-2.89075s-1.29208,-2.60919 -1.29208,-4.16093l3.53836,0c0,1.61432 0.59442,2.88449 1.78638,3.81992s2.78438,1.39844 4.77412,1.39844c1.85834,0 3.28182,-0.37855 4.27043,-1.13565c0.98861,-0.75397 1.48605,-1.78326 1.48605,-3.09098s-0.45677,-2.31823 -1.37342,-3.03153c-0.91353,-0.71643 -2.5779,-1.42348 -4.98373,-2.12113l-0.00001,0l-0.00001,-0.00002z" fill="#818285" id="svg_2"/>
   <path d="m83.89119,25.45251c0,-0.55062 0.16894,-1.01364 0.5037,-1.39219s0.83531,-0.56939 1.49543,-0.56939s1.16069,0.19084 1.50169,0.56939s0.51308,0.8447 0.51308,1.39219s-0.17207,1.00738 -0.51308,1.37342s-0.8447,0.55062 -1.50169,0.55062s-1.15755,-0.18459 -1.49543,-0.55062s-0.5037,-0.8228 -0.5037,-1.37342zm3.66662,25.12201l-3.39132,0l0,-19.84732l3.39132,0l0,19.84732z" fill="#818285" id="svg_3"/>
   <path d="m96.19566,30.7272l0.1095,2.49656c1.51421,-1.9084 3.49455,-2.86259 5.93793,-2.86259c4.19222,0 6.3071,2.36829 6.34151,7.10174l0,13.11163l-3.39132,0l0,-13.13039c-0.01251,-1.42974 -0.33788,-2.4903 -0.97923,-3.17545s-1.63935,-1.02616 -2.99712,-1.02616c-1.10124,0 -2.06482,0.29408 -2.897,0.87911s-1.47979,1.3609 -1.94282,2.31197l0,14.1409l-3.39132,0l0,-19.84732l3.20986,0l0.00001,-0.00001l0,0.00001z" fill="#818285" id="svg_4"/>
   <path d="m117.08792,33.12991c1.50169,-1.84895 3.45701,-2.77187 5.86597,-2.77187c4.19222,0 6.3071,2.36829 6.34151,7.10174l0,13.11475l-3.39132,0l0,-13.13039c-0.01251,-1.42974 -0.33788,-2.4903 -0.97923,-3.17545s-1.63935,-1.02616 -2.99712,-1.02616c-1.10124,0 -2.06482,0.29408 -2.897,0.87911s-1.47979,1.3609 -1.94282,2.31197l0,14.1409l-3.39132,0l0,-28.15668l3.39132,0l0,10.71205l0.00001,0l0,0.00001z" fill="#818285" id="svg_5"/>
   <path d="m157.34872,26.7665l-8.5784,0l0,23.80804l-3.50081,0l0,-23.80804l-8.55963,0l0,-2.88449l20.64196,0l0,2.88449l-0.00313,0z" fill="#818285" id="svg_6"/>
   <path d="m170.95466,50.57453c-0.1971,-0.39107 -0.35352,-1.08873 -0.47553,-2.08986c-1.57678,1.63622 -3.46014,2.45589 -5.64698,2.45589c-1.95533,0 -3.56025,-0.55062 -4.81166,-1.65498s-1.88025,-2.5122 -1.88025,-4.21099c0,-2.06482 0.78526,-3.66662 2.35578,-4.80854s3.77925,-1.71755 6.62621,-1.71755l3.30058,0l0,-1.558c0,-1.18571 -0.35352,-2.13365 -1.0637,-2.83444s-1.7551,-1.05744 -3.13478,-1.05744c-1.21074,0 -2.22438,0.3066 -3.04404,0.91666c-0.81967,0.61319 -1.22951,1.35465 -1.22951,2.22438l-3.41008,0c0,-0.99174 0.35039,-1.94907 1.05431,-2.87511s1.65498,-1.65498 2.85947,-2.19309c1.20448,-0.54124 2.52784,-0.81029 3.97008,-0.81029c2.28382,0 4.07646,0.57565 5.37167,1.71755s1.96784,2.71868 2.0179,4.72407l0,9.13528c0,1.8208 0.23151,3.26931 0.69766,4.34552l0,0.29095l-3.55712,0zm-2.21812,-22.69428l-2.91265,0.01251l-4.73032,-5.40295l4.08898,0l3.554,5.39044zm-3.41008,20.10386c1.0637,0 2.07107,-0.2753 3.02528,-0.82593s1.64247,-1.26392 2.07107,-2.14617l0,-4.06707l-2.65924,0c-4.15467,0 -6.23201,1.21699 -6.23201,3.64785c0,1.0637 0.35352,1.89276 1.0637,2.49343s1.62057,0.89788 2.73119,0.89788l0.00001,0.00001z" fill="#818285" id="svg_7"/>
   <path d="m179.14512,25.45251c0,-0.55062 0.16894,-1.01364 0.5037,-1.39219s0.83531,-0.56939 1.49543,-0.56939s1.16069,0.19084 1.50169,0.56939s0.51308,0.8447 0.51308,1.39219s-0.17207,1.00738 -0.51308,1.37342s-0.8447,0.55062 -1.50169,0.55062s-1.15755,-0.18459 -1.49543,-0.55062s-0.5037,-0.8228 -0.5037,-1.37342zm3.66662,25.12201l-3.39132,0l0,-19.84732l3.39132,0l0,19.84732z" fill="#818285" id="svg_8"/>
  </g>
  <g id="svg_9">
   <path d="m45.43799,11.89813l-7.849,0l0,38.66122l-6.45898,0l0,-38.66122l-7.849,0l0,-5.64813l22.15236,0l0,5.64813l0.00464,0l-0.00001,0l-0.00001,0z" fill="#ef362b" id="svg_10"/>
  </g>
  <path d="m17.8946,28.34328c-4.18668,-2.31053 -6.85765,-4.04343 -8.01292,-5.19869c-1.7329,-1.7329 -2.60165,-3.7523 -2.60165,-6.06283c0,-1.58965 0.50832,-2.88816 1.52033,-3.90018c0.86876,-0.86876 2.02402,-1.29852 3.46579,-1.29852l11.00737,0l0,-5.63307l-11.91309,0l0,0.06008c-2.85582,0.13863 -5.2449,1.10444 -7.11181,2.97596c-2.0194,2.0194 -3.03142,4.69037 -3.03142,8.01292c0,3.60905 0.93808,6.35396 2.81423,8.23011c2.16728,2.16728 5.12476,4.26062 8.88168,6.28002s5.63307,4.62106 5.63307,7.80035c0,1.87615 -0.50369,3.32254 -1.51571,4.33455s-2.52772,1.51109 -4.55174,1.51109c-1.44639,0 -2.74491,-0.57764 -3.90018,-1.7329s-1.69593,-2.45378 -1.69593,-5.4852l-5.88261,0.07394c0,4.33455 1.08133,7.58316 3.24861,9.74582s5.12938,3.24861 8.88168,3.24861c3.32254,0 6.06745,-1.08133 8.23011,-3.24861s3.24861,-4.98151 3.24861,-8.4473c0,-5.05544 -2.23659,-8.80774 -6.7144,-11.26615l-0.00001,0.00001l-0.00001,-0.00001z" fill="#00a63f" id="svg_11"/>
 </g>
</svg>